<?xml version="1.0" encoding="UTF-8"?><svg id="Layer_4" xmlns="http://www.w3.org/2000/svg" viewBox="0 0 40 31.06"><defs><style>.cls-1{font-size:11.26px;}.cls-1,.cls-2,.cls-3{fill:#ffffff;}.cls-1,.cls-3{font-family:Verdana-Bold, Verdana;font-weight:700;}.cls-4{fill:#ffffff;}.cls-3{font-size:16.9px;}</style></defs><path class="cls-4" d="m29.93,19.06l-2.8-4.84h.01l-1.04-1.79-2.59-4.49-1.76-3.05-2.11-3.66c-.37-.63-1-1.06-1.71-1.18-.03,0-.06-.01-.1-.01-.04,0-.09,0-.13-.01-.05,0-.11,0-.16,0s-.11,0-.16,0h0s-.08,0-.12.01h0s-.05,0-.07.01c-.02,0-.05,0-.07.01-.03,0-.06.01-.09.02,0,0,0,0,0,0-.08.02-.15.04-.23.06,0,0,0,0,0,0-.06.02-.11.04-.17.06-.01,0-.02,0-.03.01-.04.02-.08.03-.12.05-.02.01-.05.03-.08.04,0,0-.01,0-.02.01-.03.01-.05.03-.07.04-.01,0-.02.01-.04.02-.05.03-.09.06-.13.09-.03.02-.06.05-.1.07-.03.02-.06.05-.08.07-.04.03-.07.07-.11.1,0,0,0,0-.01.01-.03.03-.06.06-.09.1-.03.03-.05.06-.08.09,0,0,0,0,0,0-.02.02-.03.04-.05.06-.03.04-.06.08-.08.12-.02.04-.05.08-.08.12L.32,27.43c-.43.75-.43,1.67,0,2.42.43.75,1.23,1.21,2.1,1.21h8.28s.03,0,.05,0c.84-.02,1.62-.48,2.04-1.21l2.09-3.63,4.13-7.14h3.29s0,0,0,0l-2.81-4.84h-1.88c-.86,0-1.66.46-2.1,1.21l-6.22,10.77h-2.68S17.55,7.29,17.55,7.29l1.78,3.08,1.2,2.07,1.04,1.79h.01l2.81,4.84,4.1,7.15h-11.52l-.52.9-2.09,3.63c-.06.11-.13.22-.2.32h18.53c.86,0,1.66-.46,2.1-1.21.43-.75.43-1.67,0-2.42l-4.84-8.37Z"/><path class="cls-4" d="m30.38.05h-9.36c.06.09.12.19.18.28l2.63,4.56h6.54c2.57,0,4.66,2.09,4.66,4.66s-2.09,4.66-4.66,4.66h-1.17s2.72,4.72,2.72,4.72c.07-.01.14-.02.21-.04.07-.01.14-.03.21-.04.28-.06.55-.13.82-.21.07-.02.13-.04.2-.06.13-.04.26-.09.39-.14.06-.02.13-.05.19-.08.06-.02.13-.05.19-.08.06-.03.13-.06.19-.08.06-.03.13-.06.19-.09.19-.09.37-.19.55-.29.06-.03.12-.07.18-.1.06-.04.12-.07.18-.11.18-.11.35-.22.51-.35.06-.04.11-.08.17-.12.35-.26.68-.55.99-.86.05-.05.1-.1.15-.15.05-.06.11-.12.16-.18.05-.06.1-.11.15-.17.05-.06.1-.12.15-.17.05-.06.1-.12.14-.18.05-.06.1-.12.14-.18.05-.06.09-.12.13-.18.05-.06.09-.13.13-.19.04-.06.08-.13.13-.19.41-.65.75-1.34,1-2.08.02-.07.05-.14.07-.21.07-.24.14-.48.19-.72.02-.06.03-.12.04-.19.02-.09.04-.19.05-.29,0-.05.02-.11.03-.16.02-.12.04-.25.05-.37,0-.07.01-.13.02-.2,0-.01,0-.02,0-.04,0-.06.01-.13.01-.2,0-.07.01-.14.01-.22,0-.06,0-.13,0-.2,0-.08,0-.16,0-.24C39.88,4.32,35.62.05,30.38.05Z"/><path class="cls-2" d="m30.02,19.04l-2.8-4.84h.01l-1.04-1.79-2.59-4.49-1.76-3.05-2.11-3.66c-.37-.63-1-1.06-1.71-1.18-.03,0-.06-.01-.1-.01-.04,0-.09,0-.13-.01-.05,0-.11,0-.16,0s-.11,0-.16,0h0s-.08,0-.12.01h0s-.05,0-.07.01c-.02,0-.05,0-.07.01-.03,0-.06.01-.09.02,0,0,0,0,0,0-.08.02-.15.04-.23.06,0,0,0,0,0,0-.06.02-.11.04-.17.06-.01,0-.02,0-.03.01-.04.02-.08.03-.12.05-.02.01-.05.03-.08.04,0,0-.01,0-.02.01-.03.01-.05.03-.07.04-.01,0-.02.01-.04.02-.05.03-.09.06-.13.09-.03.02-.06.05-.1.07-.03.02-.06.05-.08.07-.04.03-.07.07-.11.1,0,0,0,0-.01.01-.03.03-.06.06-.09.1-.03.03-.05.06-.08.09,0,0,0,0,0,0-.02.02-.03.04-.05.06-.03.04-.06.08-.08.12-.02.04-.05.08-.08.12L.42,27.41c-.43.75-.43,1.67,0,2.42.43.75,1.23,1.21,2.1,1.21h8.28s.03,0,.05,0c.84-.02,1.62-.48,2.04-1.21l2.09-3.63,4.13-7.14h3.29s0,0,0,0l-2.81-4.84h-1.88c-.86,0-1.66.46-2.1,1.21l-6.22,10.77h-2.68S17.64,7.27,17.64,7.27l1.78,3.08,1.2,2.07,1.04,1.79h.01l2.81,4.84,4.1,7.15h-11.52l-.52.9-2.09,3.63c-.06.11-.13.22-.2.32h18.53c.86,0,1.66-.46,2.1-1.21.43-.75.43-1.67,0-2.42l-4.84-8.37Z"/><path class="cls-2" d="m30.47.03h-9.36c.06.09.12.19.18.28l2.63,4.56h6.54c2.57,0,4.66,2.09,4.66,4.66s-2.09,4.66-4.66,4.66h-1.17s2.72,4.72,2.72,4.72c.07-.01.14-.02.21-.04.07-.01.14-.03.21-.04.28-.06.55-.13.82-.21.07-.02.13-.04.2-.06.13-.04.26-.09.39-.14.06-.02.13-.05.19-.08.06-.02.13-.05.19-.08.06-.03.13-.06.19-.08.06-.03.13-.06.19-.09.19-.09.37-.19.55-.29.06-.03.12-.07.18-.1.06-.04.12-.07.18-.11.18-.11.35-.22.51-.35.06-.04.11-.08.17-.12.35-.26.68-.55.99-.86.05-.05.1-.1.15-.15.05-.06.11-.12.16-.18.05-.06.1-.11.15-.17.05-.06.1-.12.15-.17.05-.06.1-.12.14-.18.05-.06.1-.12.14-.18.05-.06.09-.12.13-.18.05-.06.09-.13.13-.19.04-.06.08-.13.13-.19.41-.65.75-1.34,1-2.08.02-.07.05-.14.07-.21.07-.24.14-.48.19-.72.02-.06.03-.12.04-.19.02-.09.04-.19.05-.29,0-.05.02-.11.03-.16.02-.12.04-.25.05-.37,0-.07.01-.13.02-.2,0-.01,0-.02,0-.04,0-.06.01-.13.01-.2,0-.07.01-.14.01-.22,0-.06,0-.13,0-.2,0-.08,0-.16,0-.24C39.97,4.3,35.71.03,30.47.03Z"/></svg>