<?xml version="1.0" encoding="UTF-8" standalone="no"?>
<!-- Generator: Adobe Illustrator 26.0.3, SVG Export Plug-In . SVG Version: 6.00 Build 0)  -->

<svg
   version="1.0"
   id="katman_1"
   x="0px"
   y="0px"
   viewBox="0 0 363.87845 329.60944"
   xml:space="preserve"
   sodipodi:docname="BYUTvLogo_black.svg"
   inkscape:version="1.2.2 (732a01da63, 2022-12-09)"
   width="363.87845"
   height="329.60944"
   xmlns:inkscape="http://www.inkscape.org/namespaces/inkscape"
   xmlns:sodipodi="http://sodipodi.sourceforge.net/DTD/sodipodi-0.dtd"
   xmlns="http://www.w3.org/2000/svg"
   xmlns:svg="http://www.w3.org/2000/svg"><defs
   id="defs21" /><sodipodi:namedview
   id="namedview19"
   pagecolor="#ffffff"
   bordercolor="#000000"
   borderopacity="0.25"
   inkscape:showpageshadow="2"
   inkscape:pageopacity="0.0"
   inkscape:pagecheckerboard="0"
   inkscape:deskcolor="#d1d1d1"
   showgrid="false"
   inkscape:zoom="1.86"
   inkscape:cx="66.935484"
   inkscape:cy="165.5914"
   inkscape:window-width="1920"
   inkscape:window-height="1017"
   inkscape:window-x="-8"
   inkscape:window-y="-8"
   inkscape:window-maximized="1"
   inkscape:current-layer="katman_1" />
<g
   id="g10"
   transform="matrix(1.3333333,0,0,-1.3333333,-118.08891,3694.5038)"
   style="fill:#000000;fill-opacity:1">
	<g
   id="g12"
   transform="scale(0.1)"
   style="fill:#000000;fill-opacity:1">
		<g
   id="g14"
   transform="scale(1.03223)"
   style="fill:#000000;fill-opacity:1">
			<path
   id="path16"
   d="m 2209.1,24466.9 c -351,0 -681.1,153.2 -908.2,422.2 -22,26.1 -18.7,65 7.3,87 26,22 65,18.7 87,-7.3 203.6,-241.1 499.4,-378.4 813.9,-378.4 5.6,0 11.2,0 16.8,0.1 33.8,0.7 62.1,-26.7 62.7,-60.8 0.5,-34.1 -26.7,-62.1 -60.8,-62.7 -6.2,-0.1 -12.5,-0.1 -18.7,-0.1"
   style="fill:#000000;fill-opacity:1" />
		</g>
		<g
   id="g18"
   transform="scale(1.72748)"
   style="fill:#000000;fill-opacity:1">
			<path
   id="path20"
   d="m 1897.6,15639.3 c -12.5,0 -24.7,6.4 -31.6,17.9 -55.6,92.5 -134.4,169.9 -227.8,224 -96.2,55.6 -206.2,85 -318,85 -103.5,0 -202.2,-24.1 -293.3,-71.5 -87,-45.3 -163.6,-111.2 -221.5,-190.7 -12,-16.5 -35.1,-20.1 -51.5,-8.1 -16.5,12 -20.1,35.1 -8.1,51.5 64.6,88.7 150,162.2 247,212.8 100.3,52.2 213.5,79.8 327.4,79.8 124.8,0 247.5,-32.8 354.9,-95 104.2,-60.2 192,-146.6 254.1,-249.8 10.5,-17.5 4.8,-40.1 -12.6,-50.6 -6,-3.6 -12.5,-5.3 -19,-5.3"
   style="fill:#000000;fill-opacity:1" />
		</g>
		<g
   id="g22"
   transform="scale(1.8067)"
   style="fill:#000000;fill-opacity:1">
			<path
   id="path24"
   d="m 1775.6,13968.4 v 0 c -15.8,0 -30.3,9.1 -37.1,23.4 l -98.7,206.4 c -9.8,20.5 -1.1,45.1 19.4,54.9 20.5,9.8 45.1,1.1 54.9,-19.4 l 61.6,-128.8 61.6,128.8 c 9.8,20.5 34.4,29.2 54.9,19.4 20.5,-9.8 29.2,-34.4 19.3,-54.9 l -98.7,-206.4 c -6.9,-14.3 -21.4,-23.4 -37.2,-23.4"
   style="fill:#000000;fill-opacity:1" />
		</g>
		<g
   id="g26"
   transform="scale(1.40757)"
   style="fill:#000000;fill-opacity:1">
			<path
   id="path28"
   d="m 1999.3,18034.9 c -19.1,0 -32.5,10.6 -38.9,17 -10.4,10.4 -16.1,24.2 -16.1,38.9 v 103.4 h 63.1 c 29.2,0 52.8,23.6 52.8,52.8 0,29.2 -23.6,52.8 -52.8,52.8 h -63.1 v 65.6 c 0,29.2 -23.6,52.8 -52.8,52.8 -29.2,0 -52.8,-23.7 -52.8,-52.8 v -65.6 h -59.9 c -29.2,0 -52.8,-23.7 -52.8,-52.8 0,-29.2 23.6,-52.8 52.8,-52.8 h 59.9 v -103.4 c 0,-42.9 16.7,-83.2 47,-113.6 30.9,-30.9 71.2,-47.9 113.6,-47.9 29.2,0 52.8,23.7 52.8,52.8 0,29.2 -23.6,52.8 -52.8,52.8"
   style="fill:#000000;fill-opacity:1" />
		</g>
		<g
   id="g30"
   transform="scale(1.28246)"
   style="fill:#000000;fill-opacity:1">
			<path
   id="path32"
   d="m 1045.6,20436.2 c -86.1,0 -156.2,70 -156.2,156.2 0,86.1 70,156.1 156.2,156.1 86.1,0 156.2,-70 156.2,-156.1 0,-86.1 -70.1,-156.2 -156.2,-156.2 z m 0,511.1 c -56,0 -109,-13.1 -156.2,-36.3 v 99 c 0,54.9 -44.5,99.4 -99.4,99.4 -54.9,0 -99.4,-44.5 -99.4,-99.4 v -417.6 c 0,-195.7 159.2,-354.9 354.9,-354.9 195.7,0 354.9,159.2 354.9,354.9 0.1,195.7 -159.1,354.9 -354.8,354.9"
   style="fill:#000000;fill-opacity:1" />
		</g>
		<g
   id="g34"
   transform="scale(1.25678)"
   style="fill:#000000;fill-opacity:1">
			<path
   id="path36"
   d="m 2034.4,21375.3 c -56,0 -101.4,-45.4 -101.4,-101.4 v -116.1 c 0,-66.7 -54.3,-120.9 -120.9,-120.9 -66.7,0 -120.9,54.2 -120.9,120.9 v 116.1 c 0,56 -45.4,101.4 -101.4,101.4 -56,0 -101.4,-45.4 -101.4,-101.4 v -116.1 c 0,-143.1 93.4,-264.7 222.3,-307.4 v -103.3 c 0,-56 45.4,-101.4 101.4,-101.4 56,0 101.4,45.4 101.4,101.4 v 103.3 c 129,42.7 222.3,164.3 222.3,307.4 v 116.1 c 0,56 -45.4,101.4 -101.4,101.4"
   style="fill:#000000;fill-opacity:1" />
		</g>
		<g
   id="g38"
   transform="scale(1.90712)"
   style="fill:#000000;fill-opacity:1">
			<path
   id="path40"
   d="m 1682.1,13608.9 c -117.6,0 -213.3,95.7 -213.3,213.3 v 197.1 c 0,36.9 29.9,66.8 66.8,66.8 36.9,0 66.8,-29.9 66.8,-66.8 v -197.1 c 0,-43.9 35.8,-79.7 79.7,-79.7 44,0 79.7,35.8 79.7,79.7 v 197.1 c 0,36.9 29.9,66.8 66.8,66.8 36.9,0 66.8,-29.9 66.8,-66.8 v -197.1 c 0,-117.6 -95.7,-213.3 -213.3,-213.3"
   style="fill:#000000;fill-opacity:1" />
		</g>
	</g>
</g>
</svg>
