<?xml version="1.0" encoding="UTF-8" standalone="no"?>
<svg
   width="24"
   height="24"
   viewBox="0 0 24 24"
   version="1.1"
   id="svg4"
   sodipodi:docname="vimeo_circleWhite.svg"
   inkscape:version="1.2.2 (732a01da63, 2022-12-09)"
   xmlns:inkscape="http://www.inkscape.org/namespaces/inkscape"
   xmlns:sodipodi="http://sodipodi.sourceforge.net/DTD/sodipodi-0.dtd"
   xmlns="http://www.w3.org/2000/svg"
   xmlns:svg="http://www.w3.org/2000/svg">
  <defs
     id="defs8" />
  <sodipodi:namedview
     id="namedview6"
     pagecolor="#ffffff"
     bordercolor="#000000"
     borderopacity="0.25"
     inkscape:showpageshadow="2"
     inkscape:pageopacity="0.0"
     inkscape:pagecheckerboard="0"
     inkscape:deskcolor="#d1d1d1"
     showgrid="false"
     inkscape:zoom="34.875"
     inkscape:cx="9.3476703"
     inkscape:cy="6.4229391"
     inkscape:window-width="1920"
     inkscape:window-height="1017"
     inkscape:window-x="-8"
     inkscape:window-y="-8"
     inkscape:window-maximized="1"
     inkscape:current-layer="svg4" />
  <path
     d="M12 0c-6.627 0-12 5.373-12 12s5.373 12 12 12 12-5.373 12-12-5.373-12-12-12zm5.82 11.419c-1.306 2.792-4.463 6.595-6.458 6.595-1.966 0-2.25-4.192-3.324-6.983-.527-1.372-.868-1.058-1.858-.364l-.604-.779c1.444-1.27 2.889-2.745 3.778-2.826.998-.096 1.615.587 1.845 2.051.305 1.924.729 4.91 1.472 4.91.577 0 2.003-2.369 2.076-3.215.13-1.24-.912-1.277-1.815-.89 1.43-4.689 7.383-3.825 4.888 1.501z"
     id="path2"
     style="fill:#000000;fill-opacity:1" />
</svg>
