<?xml version="1.0" encoding="UTF-8" standalone="no"?>
<svg
   clip-rule="evenodd"
   fill-rule="evenodd"
   stroke-linejoin="round"
   stroke-miterlimit="2"
   viewBox="0 0 24 24"
   version="1.1"
   id="svg4"
   sodipodi:docname="circleArrowDown.svg"
   inkscape:version="1.2.2 (732a01da63, 2022-12-09)"
   xmlns:inkscape="http://www.inkscape.org/namespaces/inkscape"
   xmlns:sodipodi="http://sodipodi.sourceforge.net/DTD/sodipodi-0.dtd"
   xmlns="http://www.w3.org/2000/svg"
   xmlns:svg="http://www.w3.org/2000/svg">
  <defs
     id="defs8" />
  <sodipodi:namedview
     id="namedview6"
     pagecolor="#ffffff"
     bordercolor="#000000"
     borderopacity="0.25"
     inkscape:showpageshadow="2"
     inkscape:pageopacity="0.0"
     inkscape:pagecheckerboard="0"
     inkscape:deskcolor="#d1d1d1"
     showgrid="false"
     inkscape:zoom="34.875"
     inkscape:cx="8.6164875"
     inkscape:cy="12.014337"
     inkscape:window-width="1920"
     inkscape:window-height="1017"
     inkscape:window-x="-8"
     inkscape:window-y="-8"
     inkscape:window-maximized="1"
     inkscape:current-layer="svg4" />
  <path
     d="m11.998 2c5.517 0 9.997 4.48 9.997 9.998 0 5.517-4.48 9.997-9.997 9.997-5.518 0-9.998-4.48-9.998-9.997 0-5.518 4.48-9.998 9.998-9.998zm4.843 8.211c.108-.141.157-.3.157-.456 0-.389-.306-.755-.749-.755h-8.501c-.445 0-.75.367-.75.755 0 .157.05.316.159.457 1.203 1.554 3.252 4.199 4.258 5.498.142.184.36.29.592.29.23 0 .449-.107.591-.291z"
     fill-rule="nonzero"
     id="path2"
     style="fill:#ffffff;fill-opacity:1" />
</svg>
