<?xml version="1.0" encoding="UTF-8" standalone="no"?>
<svg
   data-cy="angel-logo"
   width="89.857895"
   height="30.811937"
   viewBox="0 0 151.76 51.995144"
   fill="#000000"
   version="1.1"
   id="svg155"
   sodipodi:docname="AngelStudiosLogo_black.svg"
   inkscape:version="1.2.2 (732a01da63, 2022-12-09)"
   xmlns:inkscape="http://www.inkscape.org/namespaces/inkscape"
   xmlns:sodipodi="http://sodipodi.sourceforge.net/DTD/sodipodi-0.dtd"
   xmlns="http://www.w3.org/2000/svg"
   xmlns:svg="http://www.w3.org/2000/svg">
  <defs
     id="defs159" />
  <sodipodi:namedview
     id="namedview157"
     pagecolor="#ffffff"
     bordercolor="#000000"
     borderopacity="0.25"
     inkscape:showpageshadow="2"
     inkscape:pageopacity="0.0"
     inkscape:pagecheckerboard="0"
     inkscape:deskcolor="#d1d1d1"
     showgrid="false"
     inkscape:zoom="13.444444"
     inkscape:cx="40.27686"
     inkscape:cy="15.396694"
     inkscape:window-width="1920"
     inkscape:window-height="1017"
     inkscape:window-x="-8"
     inkscape:window-y="-8"
     inkscape:window-maximized="1"
     inkscape:current-layer="svg155" />
  <path
     d="m 40.7824,50.360231 0.5403,-0.943 c 0.0248,-0.0434 0.0584,-0.0809 0.0987,-0.1101 0.0403,-0.0292 0.0863,-0.0494 0.135,-0.0594 0.0486,-0.0099 0.0988,-0.0092 0.1472,0.0019 0.0484,0.0112 0.0939,0.0326 0.1335,0.0628 0.0751,0.0466 1.2945,0.9401 2.274,0.9401 0.7831,0 1.3696,-0.5152 1.3696,-1.1642 0,-0.7742 -0.6472,-1.3069 -1.9128,-1.822 -1.4159,-0.5821 -2.8318,-1.4873 -2.8318,-3.2773 0,-1.3505 0.994,-2.9105 3.3894,-2.9105 1.084,0.0206 2.1358,0.3751 3.0138,1.0158 0.0746,0.0569 0.1252,0.1399 0.1418,0.2327 0.0166,0.0927 -0.0021,0.1883 -0.0522,0.2679 l -0.5779,0.8731 c -0.0461,0.0941 -0.1271,0.1662 -0.2256,0.2005 -0.0984,0.0343 -0.2063,0.0282 -0.3003,-0.0171 -0.1214,-0.0757 -1.2656,-0.8353 -2.0949,-0.8353 -0.8293,0 -1.3263,0.5821 -1.3263,1.0623 0,0.7131 0.5577,1.1992 1.7771,1.6998 1.462,0.5821 3.1495,1.4727 3.1495,3.4286 0,1.5629 -1.3407,3.0066 -3.4674,3.0066 -1.2131,0.0374 -2.3959,-0.3854 -3.3143,-1.1846 -0.1271,-0.1514 -0.2022,-0.227 -0.0664,-0.4686 z"
     id="path137" />
  <path
     d="m 52.7915,43.054831 h -2.3116 c -0.0767,0 -0.1502,-0.0306 -0.2044,-0.0852 -0.0541,-0.0546 -0.0846,-0.1286 -0.0846,-0.2058 v -1.2516 c 0,-0.0772 0.0305,-0.1512 0.0846,-0.2058 0.0542,-0.0546 0.1277,-0.0852 0.2044,-0.0852 h 6.5852 c 0.0766,0 0.1501,0.0306 0.2043,0.0852 0.0542,0.0546 0.0846,0.1286 0.0846,0.2058 v 1.2516 c 0,0.0772 -0.0304,0.1512 -0.0846,0.2058 -0.0542,0.0546 -0.1277,0.0852 -0.2043,0.0852 h -2.3116 v 8.5163 c 0,0.0771 -0.0305,0.1512 -0.0847,0.2058 -0.0542,0.0545 -0.1277,0.0852 -0.2043,0.0852 h -1.4014 c -0.0766,0 -0.1501,-0.0307 -0.2043,-0.0852 -0.0542,-0.0546 -0.0847,-0.1287 -0.0847,-0.2058 z"
     id="path139" />
  <path
     d="m 60.5813,41.512231 c 0,-0.0772 0.0304,-0.1512 0.0846,-0.2058 0.0542,-0.0546 0.1277,-0.0852 0.2043,-0.0852 h 1.4304 c 0.0766,0 0.1501,0.0306 0.2043,0.0852 0.0542,0.0546 0.0846,0.1286 0.0846,0.2058 v 6.1995 c 0,1.2922 0.8669,2.308 2.1874,2.308 0.2962,0.0039 0.5901,-0.0533 0.8636,-0.168 0.2735,-0.1147 0.5209,-0.2845 0.7268,-0.4991 0.206,-0.2145 0.3662,-0.4692 0.4708,-0.7484 0.1046,-0.2792 0.1515,-0.577 0.1377,-0.8751 v -6.2169 c 0,-0.0772 0.0304,-0.1512 0.0846,-0.2058 0.0542,-0.0546 0.1277,-0.0852 0.2043,-0.0852 h 1.4448 c 0.0766,0 0.1501,0.0306 0.2043,0.0852 0.0542,0.0546 0.0846,0.1286 0.0846,0.2058 v 6.313 c -0.0563,1.0809 -0.5224,2.0989 -1.3019,2.8439 -0.7796,0.7451 -1.8132,1.1604 -2.8879,1.1604 -1.0746,0 -2.1082,-0.4153 -2.8878,-1.1604 -0.7795,-0.745 -1.2456,-1.763 -1.3019,-2.8439 z"
     id="path141" />
  <path
     d="m 73.3762,41.512231 c -1e-4,-0.0743 0.0279,-0.1458 0.0784,-0.1999 0.0505,-0.0541 0.1196,-0.0867 0.1932,-0.0911 h 3.5686 c 1.3986,0 2.7399,0.5596 3.7288,1.5557 0.989,0.9962 1.5445,2.3472 1.5445,3.756 0,1.4087 -0.5555,2.7598 -1.5445,3.7559 -0.9889,0.9962 -2.3302,1.5558 -3.7288,1.5558 h -3.5686 c -0.0736,-0.0044 -0.1427,-0.0371 -0.1932,-0.0912 -0.0505,-0.0541 -0.0785,-0.1256 -0.0784,-0.1998 z m 3.661,8.4842 c 1.9591,0 3.3894,-1.4873 3.3894,-3.4752 0.0162,-0.4551 -0.0599,-0.9089 -0.2239,-1.3334 -0.1639,-0.4244 -0.4121,-0.8108 -0.7294,-1.1353 -0.3173,-0.3245 -0.697,-0.5804 -1.1159,-0.7519 -0.4188,-0.1716 -0.8681,-0.2552 -1.3202,-0.2458 H 75.318 v 6.9358 z"
     id="path143" />
  <path
     d="m 86.3037,41.512231 c 0,-0.0772 0.0305,-0.1512 0.0846,-0.2058 0.0542,-0.0546 0.1277,-0.0852 0.2044,-0.0852 h 1.4014 c 0.0766,0 0.1501,0.0306 0.2043,0.0852 0.0542,0.0546 0.0846,0.1286 0.0846,0.2058 v 10.0472 c 0,0.0772 -0.0304,0.1512 -0.0846,0.2058 -0.0542,0.0546 -0.1277,0.0852 -0.2043,0.0852 h -1.4014 c -0.0767,0 -0.1502,-0.0306 -0.2044,-0.0852 -0.0541,-0.0546 -0.0846,-0.1286 -0.0846,-0.2058 z"
     id="path145" />
  <path
     d="m 97.4837,41.072631 c 1.0728,-0.0029 2.1223,0.3148 3.0163,0.9128 0.893,0.5981 1.591,1.4496 2.004,2.4469 0.413,0.9973 0.523,2.0956 0.316,3.156 -0.207,1.0603 -0.721,2.0351 -1.478,2.8011 -0.756,0.7659 -1.7217,1.2886 -2.7734,1.5019 -1.0517,0.2133 -2.1426,0.1076 -3.1347,-0.3037 -0.992,-0.4113 -1.8407,-1.1096 -2.4387,-2.0068 -0.598,-0.8972 -0.9184,-1.9529 -0.9207,-3.0335 -0.003,-0.7176 0.1346,-1.4287 0.4051,-2.0926 0.2704,-0.6639 0.6683,-1.2675 1.1709,-1.7761 0.5025,-0.5087 1.0998,-0.9124 1.7576,-1.188 0.6578,-0.2756 1.3631,-0.4176 2.0756,-0.418 z m 0,8.9528 c 0.6871,0.0035 1.3598,-0.1988 1.9326,-0.5811 0.5728,-0.3823 1.0197,-0.9274 1.2847,-1.5662 0.265,-0.6387 0.335,-1.3423 0.202,-2.0213 -0.133,-0.6791 -0.463,-1.303 -0.9492,-1.7926 -0.4856,-0.4896 -1.1048,-0.8229 -1.7788,-0.9574 -0.6741,-0.1345 -1.3726,-0.0643 -2.0069,0.2017 -0.6344,0.2661 -1.1759,0.716 -1.556,1.2927 -0.38,0.5766 -0.5814,1.254 -0.5785,1.9461 0,0.9233 0.3629,1.8091 1.0094,2.4636 0.6466,0.6545 1.5241,1.0245 2.4407,1.0291 z"
     id="path147" />
  <path
     d="m 106.074,50.360231 0.543,-0.943 c 0.025,-0.0433 0.058,-0.0808 0.098,-0.11 0.04,-0.0291 0.086,-0.0494 0.134,-0.0593 0.049,-0.0099 0.099,-0.0093 0.147,0.0018 0.048,0.0111 0.093,0.0325 0.133,0.0627 0.075,0.0466 1.297,0.9401 2.277,0.9401 0.783,0 1.369,-0.5152 1.369,-1.1642 0,-0.7742 -0.647,-1.3069 -1.913,-1.822 -1.416,-0.5821 -2.831,-1.4873 -2.831,-3.2773 0,-1.3505 0.994,-2.9105 3.389,-2.9105 1.084,0.0212 2.136,0.3756 3.014,1.0158 0.074,0.0573 0.124,0.1403 0.141,0.2328 0.016,0.0926 -0.002,0.188 -0.052,0.2678 l -0.578,0.8731 c -0.046,0.0944 -0.128,0.1664 -0.227,0.2007 -0.099,0.0343 -0.207,0.0281 -0.301,-0.0173 -0.122,-0.0757 -1.266,-0.8353 -2.092,-0.8353 -0.827,0 -1.327,0.5821 -1.327,1.0623 0,0.7131 0.558,1.1992 1.777,1.6998 1.463,0.5821 3.15,1.4727 3.15,3.4286 0,1.5629 -1.344,3.0066 -3.467,3.0066 -1.213,0.0359 -2.396,-0.3866 -3.315,-1.1846 -0.13,-0.1514 -0.205,-0.227 -0.069,-0.4686 z"
     id="path149" />
  <path
     d="m 151,30.830631 -11.194,-2.41 V 5.4623708 c 0,-0.21926 -0.076,-0.43149 -0.216,-0.59997 -0.139,-0.16848 -0.332,-0.28262 -0.546,-0.32267 l -4.884,-0.66651 c -0.187,-0.01371 -0.372,0.04731 -0.514,0.16986 -0.143,0.12255 -0.232,0.29678 -0.249,0.48501 -0.001,0.02132 -0.001,0.04271 0,0.06403 V 32.576931 c 0.01,0.2117 0.091,0.4138 0.23,0.5726 0.14,0.1588 0.329,0.2649 0.536,0.3006 l 16.84,3.4926 c 0.088,0.0119 0.177,0.0062 0.262,-0.0166 0.086,-0.0228 0.166,-0.0624 0.236,-0.1165 0.071,-0.054 0.13,-0.1215 0.174,-0.1985 0.045,-0.0771 0.074,-0.1622 0.085,-0.2505 0,-0.0291 0,-0.0611 0,-0.0902 v -4.5114 c -0.03,-0.2098 -0.117,-0.4071 -0.251,-0.5708 -0.134,-0.1636 -0.31,-0.2873 -0.509,-0.3576 z M 122.253,2.6449708 105.256,1.2595608 c -0.1,-0.00791 -0.201,0.00454 -0.297,0.03662 -0.095,0.03208 -0.183,0.08314 -0.259,0.15016 -0.076,0.06701 -0.137,0.14863 -0.181,0.24002 -0.044,0.0914 -0.069,0.19072 -0.074,0.2921 V 29.398631 c 0.012,0.2131 0.101,0.4143 0.251,0.5656 0.149,0.1512 0.349,0.242 0.56,0.2552 l 16.997,1.3825 c 0.092,0.0075 0.185,-0.0035 0.274,-0.0323 0.088,-0.0289 0.17,-0.0751 0.241,-0.136 0.07,-0.0608 0.128,-0.1351 0.17,-0.2187 0.042,-0.0835 0.068,-0.1745 0.075,-0.2679 10e-4,-0.0204 10e-4,-0.0408 0,-0.0611 v -4.5114 c -0.01,-0.2113 -0.091,-0.413 -0.229,-0.5718 -0.139,-0.1588 -0.327,-0.2651 -0.534,-0.3013 l -11.399,-0.9751 v -5.6289 l 9.353,0.8731 c 0.177,0.0233 0.356,-0.0248 0.499,-0.1338 0.142,-0.109 0.236,-0.27 0.261,-0.4483 0.004,-0.0406 0.004,-0.0816 0,-0.1222 v -4.5346 c -0.009,-0.2109 -0.09,-0.4123 -0.228,-0.571 -0.138,-0.1588 -0.326,-0.2653 -0.532,-0.3022 l -9.362,-0.8208 V 7.7180408 l 11.399,1.0245 c 0.093,0.00756 0.186,-0.00342 0.274,-0.03229 0.089,-0.02887 0.171,-0.07506 0.241,-0.13593 0.071,-0.06086 0.129,-0.13519 0.171,-0.21871 0.042,-0.08351 0.067,-0.17457 0.074,-0.26794 10e-4,-0.02034 10e-4,-0.04077 0,-0.06112 v -4.51133 c -0.009,-0.20871 -0.088,-0.40816 -0.224,-0.56608 -0.136,-0.15792 -0.321,-0.26508 -0.524,-0.30417 z M 93.1465,12.433131 H 82.8194 c -0.1056,-0.0115 -0.2124,2e-4 -0.313,0.0342 -0.1007,0.0341 -0.1929,0.0896 -0.2703,0.1629 -0.0774,0.0732 -0.1382,0.1624 -0.1781,0.2616 -0.04,0.0991 -0.0582,0.2057 -0.0534,0.3126 v 4.3658 c -2e-4,0.1056 0.0211,0.2101 0.0626,0.307 0.0415,0.097 0.1024,0.1843 0.1787,0.2566 0.0764,0.0723 0.1667,0.1281 0.2654,0.1638 0.0986,0.0357 0.2035,0.0506 0.3081,0.0439 0.812,0 3.7564,0 4.681,0.0494 v 4.1912 c -1.1784,0.4055 -2.419,0.5966 -3.6639,0.5647 -5.0393,-0.1019 -8.131,-3.7925 -8.131,-8.3533 0,-4.5113 3.1033,-8.3561302 8.0906,-8.2542602 1.9851,0.05239 3.817,0.61703 5.3947,2.1538 0.1652,0.11223 0.3599,0.1722 0.5591,0.1722 0.1993,0 0.394,-0.05997 0.5591,-0.1722 l 3.2074,-3.38205 c 0.0798,-0.07232 0.1427,-0.16161 0.1842,-0.2614 0.0414,-0.09979 0.0603,-0.2076 0.0553,-0.31565 -0.005,-0.10805 -0.0337,-0.21363 -0.0841,-0.30913 -0.0504,-0.0955 -0.1213,-0.17854 -0.2074,-0.24311 -2.8086,-2.56127 -6.6257,-4.09803002 -10.0873,-4.20280902 -8.1918,-0.101869 -14.7538,6.61273902 -14.7538,14.86410922 0,8.2514 6.562,14.6575 14.7538,14.8641 3.5604,0.0684 7.0814,-0.76 10.2433,-2.4099 0.0895,-0.0752 0.1617,-0.169 0.2116,-0.275 0.0499,-0.1061 0.0763,-0.2218 0.0774,-0.3391 v -13.4293 c -0.0043,-0.2075 -0.0845,-0.4061 -0.2253,-0.5576 -0.1408,-0.1515 -0.3323,-0.2452 -0.5376,-0.2631 z M 59.7178,0.54356078 l -4.9353,0.15426 c -0.2208,0.01337 -0.4281,0.11123 -0.5796,0.27355 C 54.0514,1.1337008 53.9673,1.3482008 53.9677,1.5709808 V 16.277931 L 38.1938,1.9260708 c -0.9159,-0.81786 -2.4416,-0.56173 -2.4416,0.36091 V 30.117531 c 0.0097,0.2003 0.098,0.3884 0.2453,0.5232 0.1474,0.1348 0.3418,0.2052 0.5406,0.1957 h 0.0289 l 4.8833,-0.358 c 0.2141,-0.0193 0.4126,-0.1206 0.5546,-0.2831 0.1419,-0.1625 0.2165,-0.3738 0.2082,-0.5901 v -15.4258 h 0.0521 l 16.2303,15.5801 c 0.4075,0.3609 1.9851,0.3609 1.9851,-0.6141 V 1.3119508 c 0.0019,-0.099 -0.0155,-0.19741 -0.0514,-0.28961 -0.0358,-0.0922 -0.0894,-0.17638002 -0.1575,-0.24773002 -0.0682,-0.07136 -0.1496,-0.12849 -0.2397,-0.16813 -0.0901,-0.03964 -0.187,-0.06102 -0.2853,-0.06292 z"
     id="path151" />
  <path
     d="m 7.89706,35.120731 c 0.06915,-0.0248 0.13265,-0.0634 0.18675,-0.1134 0.0541,-0.05 0.09769,-0.1104 0.1282,-0.1777 l 7.17179,-15.9497 0.1069,-0.1368 0.1069,0.1368 3.3027,7.5849 -4.7186,0.9604 c -0.6183,0.1252 -0.5779,0.815 0.0318,1.1177 l 7.6168,3.8535 c 0.2351,0.1245 0.5018,0.1752 0.7657,0.1456 l 5.1144,-0.6491 c 0.4306,-0.0931 0.8842,-0.3609 0.8929,-0.8033 0.0028,-0.1489 -0.0288,-0.2964 -0.0925,-0.4308 L 16.5309,4.7958508 c 0,0 -0.5779,-0.52098 -1.0402,-0.52098 -0.2037,-0.01068 -0.4066,0.03164 -0.5893,0.12289 -0.1827,0.09125 -0.339,0.22835 -0.4538,0.39809 L 0.0895997,35.761031 c -0.0582765,0.1279 -0.088813823,0.2668 -0.08957485678,0.4075 -8.89197198e-4,0.1147 0.02210065678,0.2283 0.06748675678,0.3335 0.0453864,0.1052 0.1121604,0.1997 0.1960164,0.2773 0.083855,0.0776 0.18293,0.1366 0.290834,0.1733 0.107903,0.0367 0.222239,0.0501 0.335632,0.0396 0.225386,0 7.007066,-1.8715 7.007066,-1.8715 z"
     id="path153" />
</svg>
