<?xml version="1.0" encoding="UTF-8" standalone="no"?>
<!-- Created with Inkscape (http://www.inkscape.org/) -->

<svg
   width="180.55774mm"
   height="29.999992mm"
   viewBox="0 0 180.55774 29.999992"
   version="1.1"
   id="svg5"
   inkscape:version="1.2.2 (732a01da63, 2022-12-09)"
   sodipodi:docname="apettit-logo.svg"
   xmlns:inkscape="http://www.inkscape.org/namespaces/inkscape"
   xmlns:sodipodi="http://sodipodi.sourceforge.net/DTD/sodipodi-0.dtd"
   xmlns="http://www.w3.org/2000/svg"
   xmlns:svg="http://www.w3.org/2000/svg">
  <sodipodi:namedview
     id="namedview7"
     pagecolor="#ffffff"
     bordercolor="#000000"
     borderopacity="0.25"
     inkscape:showpageshadow="2"
     inkscape:pageopacity="0.0"
     inkscape:pagecheckerboard="0"
     inkscape:deskcolor="#d1d1d1"
     inkscape:document-units="mm"
     showgrid="false"
     showguides="true"
     inkscape:zoom="1.5229018"
     inkscape:cx="333.24539"
     inkscape:cy="52.531294"
     inkscape:window-width="1920"
     inkscape:window-height="1017"
     inkscape:window-x="-8"
     inkscape:window-y="-8"
     inkscape:window-maximized="1"
     inkscape:current-layer="layer1">
    <sodipodi:guide
       position="17.32173,16.654888"
       orientation="0,1"
       id="guide238"
       inkscape:locked="false"
       inkscape:label=""
       inkscape:color="rgb(0,134,229)" />
  </sodipodi:namedview>
  <defs
     id="defs2">
    <inkscape:path-effect
       effect="fillet_chamfer"
       id="path-effect8084"
       is_visible="true"
       lpeversion="1"
       nodesatellites_param="F,0,0,1,0,0,0,1 @ F,0,0,1,0,0,0,1 @ F,0,0,1,0,0,0,1 @ F,0,0,1,0,0,0,1 @ F,0,0,1,0,0,0,1 @ F,0,0,1,0,0,0,1 @ F,0,0,1,0,0,0,1 @ F,0,0,1,0,0,0,1 @ F,0,0,1,0,0,0,1 | F,0,0,1,0,0,0,1 @ F,0,0,1,0,0,0,1 @ F,0,0,1,0,0,0,1 @ F,0,0,1,0,0,0,1 @ F,0,0,1,0,0,0,1 @ F,0,0,1,0,0,0,1 @ F,0,0,1,0,0,0,1"
       unit="px"
       method="auto"
       mode="F"
       radius="0"
       chamfer_steps="1"
       flexible="false"
       use_knot_distance="true"
       apply_no_radius="true"
       apply_with_radius="true"
       only_selected="false"
       hide_knots="false" />
    <inkscape:path-effect
       effect="fillet_chamfer"
       id="path-effect1461"
       is_visible="true"
       lpeversion="1"
       nodesatellites_param="F,0,0,1,0,2.6458333,0,1 @ F,0,0,1,0,2.6458333,0,1 @ F,0,0,1,0,2.6458333,0,1 @ F,0,0,1,0,2.6458333,0,1"
       unit="px"
       method="auto"
       mode="F"
       radius="10"
       chamfer_steps="1"
       flexible="false"
       use_knot_distance="true"
       apply_no_radius="true"
       apply_with_radius="true"
       only_selected="false"
       hide_knots="false" />
  </defs>
  <g
     inkscape:groupmode="layer"
     id="layer3"
     inkscape:label="Layer 2"
     transform="translate(-7.6782704,-11.654896)" />
  <g
     inkscape:label="Layer 1"
     inkscape:groupmode="layer"
     id="layer1"
     transform="matrix(0.94664098,0,0,0.93312631,-5.8112056,-10.146691)">
    <path
       id="path8284"
       style="opacity:1;fill:none;stroke:#ffffff;stroke-width:4.90252;stroke-linecap:round;stroke-linejoin:round;stroke-dasharray:none;stroke-opacity:1;stop-color:#000000;stop-opacity:1"
       d="m 31.224925,13.325127 c 5.536009,0 10.023824,4.321569 10.023824,9.652507 0,5.330948 -4.487815,9.652527 -10.023824,9.652527 H 25.80132 22.712599 l -4.67299,7.942429 H 8.5898365 L 16.756224,26.95195 24.922611,13.331301 c 3.196788,5.257298 4.938731,7.985236 8.226888,13.190431 m 5.767558,9.802083 2.338345,4.248775 H 24.927074"
       sodipodi:nodetypes="ccscccccccccc" />
    <path
       id="text9070"
       style="font-style:normal;font-variant:normal;font-weight:bold;font-stretch:normal;font-size:25.5767px;font-family:Jokerman;-inkscape-font-specification:'Jokerman Bold';font-variation-settings:normal;opacity:1;fill:#ffffff;fill-opacity:1;stroke:none;stroke-width:1.45002;stroke-linecap:square;stroke-linejoin:round;stroke-miterlimit:4;stroke-dasharray:none;stroke-dashoffset:0;stroke-opacity:1;stop-color:#000000;stop-opacity:1"
       d="M 89.081713 10.795967 L 89.081713 21.051975 C 88.160953 19.790192 86.848381 19.159455 85.143269 19.159455 C 83.489311 19.159455 82.09927 19.781951 80.973897 21.026683 C 79.865574 22.254363 79.311756 23.78066 79.311756 25.60513 C 79.311756 27.412548 79.848542 28.913022 80.922762 30.106601 C 81.996983 31.300179 83.344168 31.896852 84.964024 31.896852 C 85.714273 31.896852 86.42193 31.760595 87.086924 31.487777 C 87.751917 31.21496 88.297495 30.847945 88.723772 30.387565 L 89.158689 29.74811 L 89.158689 31.64118 L 92.7139 31.64118 L 92.7139 10.795967 L 89.081713 10.795967 z M 53.965071 13.200381 L 46.905783 31.64118 L 51.024022 31.64118 L 52.354064 28.034835 L 59.796584 28.034835 L 61.126627 31.64118 L 65.244315 31.64118 L 58.185578 13.200381 L 53.965071 13.200381 z M 145.40206 13.200381 L 145.40206 31.64118 L 149.26408 31.64118 L 149.26408 24.760589 L 151.48924 24.760589 C 152.71692 24.760589 153.73116 24.599059 154.53256 24.275087 C 155.55563 23.865861 156.34845 23.192268 156.91113 22.254456 C 157.47382 21.316645 157.75567 20.190877 157.75567 18.877941 C 157.75567 17.138727 157.22658 15.758027 156.16941 14.73496 C 155.11224 13.711893 153.69748 13.200381 151.92416 13.200381 L 145.40206 13.200381 z M 187.60328 13.327941 C 186.98944 13.327941 186.45265 13.549909 185.99227 13.993238 C 185.54895 14.419516 185.32698 14.93927 185.32698 15.55311 C 185.32698 16.184001 185.54895 16.712546 185.99227 17.138824 C 186.4356 17.565102 186.97239 17.778278 187.60328 17.778278 C 188.21712 17.778278 188.74567 17.565102 189.18899 17.138824 C 189.64937 16.695495 189.87958 16.16695 189.87958 15.55311 C 189.87958 14.922218 189.65817 14.393673 189.21484 13.967396 C 188.77151 13.541118 188.23417 13.327941 187.60328 13.327941 z M 171.8737 15.501975 L 171.8737 19.568529 L 170.49252 19.568529 L 170.49252 22.587105 L 171.8737 22.561262 L 171.8737 31.64118 L 175.53118 31.64118 L 175.53118 22.561262 L 177.50068 22.583806 L 177.50068 22.587105 L 177.61669 22.584905 L 177.80748 22.587105 L 177.80748 22.581606 L 178.88185 22.561262 L 178.88185 31.64118 L 182.53933 31.64118 L 182.53933 22.561262 L 184.81563 22.587105 L 184.81563 19.568529 L 182.53933 19.568529 L 182.53933 15.501975 L 178.88185 15.501975 L 178.88185 19.568529 L 177.80748 19.568529 L 175.53118 19.568529 L 175.53118 15.501975 L 171.8737 15.501975 z M 192.36097 15.501975 L 192.36097 19.568529 L 190.9798 19.568529 L 190.9798 22.587105 L 192.36097 22.561262 L 192.36097 31.64118 L 196.0179 31.64118 L 196.0179 22.561262 L 198.29476 22.587105 L 198.29476 19.568529 L 196.0179 19.568529 L 196.0179 15.501975 L 192.36097 15.501975 z M 149.23823 16.371809 L 151.20773 16.371809 C 152.02618 16.371809 152.65692 16.593226 153.10025 17.036555 C 153.54358 17.479884 153.76555 18.09359 153.76555 18.877941 C 153.76555 20.753564 152.69142 21.691429 150.54298 21.691429 L 149.23823 21.691429 L 149.23823 16.371809 z M 56.08797 16.704457 C 56.08797 17.164837 56.113794 17.522511 56.164947 17.778278 C 56.2161 18.034045 56.301261 18.349413 56.420619 18.724538 L 56.829693 19.952312 L 58.56881 25.042102 L 53.581288 25.042102 L 55.320955 19.952312 L 55.73003 18.724538 C 55.866439 18.178902 55.943358 17.83826 55.96041 17.701851 C 55.994512 17.548391 56.036817 17.21599 56.08797 16.704457 z M 109.26218 19.057186 C 107.38656 19.057186 105.84323 19.679682 104.6326 20.924414 C 103.43902 22.152094 102.84235 23.729488 102.84235 25.656264 C 102.84235 27.617143 103.43902 29.176954 104.6326 30.33643 C 105.82618 31.495906 107.4206 32.075547 109.41558 32.075547 C 112.04146 32.075547 113.92543 30.993184 115.06785 28.827692 L 112.17794 27.522942 C 111.80281 28.153834 111.40173 28.606009 110.97546 28.878827 C 110.54918 29.134594 110.02063 29.262609 109.38974 29.262609 C 108.52013 29.262609 107.82127 29.015369 107.29268 28.520886 C 106.7641 28.026404 106.49983 27.34402 106.49983 26.474414 L 115.4005 26.474414 C 115.4005 24.087257 114.87196 22.254382 113.81479 20.975548 C 112.75762 19.696715 111.24011 19.057186 109.26218 19.057186 z M 163.68946 19.057186 C 161.81383 19.057186 160.2705 19.679682 159.05987 20.924414 C 157.8663 22.152094 157.26962 23.729488 157.26962 25.656264 C 157.26962 27.617143 157.8663 29.176954 159.05987 30.33643 C 160.25345 31.495906 161.84788 32.075547 163.84286 32.075547 C 166.46873 32.075547 168.3527 30.993184 169.49513 28.827692 L 166.60521 27.522942 C 166.23009 28.153834 165.82901 28.606009 165.40273 28.878827 C 164.97645 29.134594 164.44791 29.262609 163.81702 29.262609 C 162.94741 29.262609 162.24854 29.015369 161.71996 28.520886 C 161.19138 28.026404 160.9271 27.34402 160.9271 26.474414 L 169.82778 26.474414 C 169.82778 24.087257 169.29923 22.254382 168.24206 20.975548 C 167.18489 19.696715 165.66739 19.057186 163.68946 19.057186 z M 102.71424 19.261723 C 100.95797 19.261723 99.73056 19.978171 99.031465 21.410465 L 99.031465 19.568529 L 95.373985 19.568529 L 95.373985 31.64118 L 99.031465 31.64118 L 99.031465 25.809667 C 99.031465 25.161725 99.082561 24.658453 99.184868 24.30038 C 99.304225 23.925255 99.508611 23.618677 99.79848 23.379962 C 100.25886 22.919581 100.90718 22.689373 101.74268 22.689373 C 102.15191 22.689373 102.56068 22.765743 102.96991 22.919203 L 102.96991 19.261723 L 102.71424 19.261723 z M 73.045326 19.287565 C 71.340214 19.287565 70.061157 20.003464 69.208601 21.435757 L 69.234443 19.568529 L 65.576963 19.568529 L 65.576963 31.64118 L 69.260285 31.64118 L 69.260285 25.119079 C 69.260285 23.345763 70.019038 22.458994 71.536588 22.458994 C 72.95183 22.458994 73.659487 23.336972 73.659487 25.093237 L 73.659487 31.64118 L 77.291125 31.64118 L 77.291125 23.993574 C 77.291125 23.02166 77.188932 22.254116 76.984319 21.691429 C 76.779705 21.128742 76.421481 20.643052 75.909948 20.233826 C 75.534823 19.909854 75.10023 19.670855 74.605748 19.517395 C 74.128316 19.363935 73.608012 19.287565 73.045326 19.287565 z M 115.01672 19.568529 L 120.41331 31.64118 L 123.38021 31.64118 L 125.22159 26.269876 L 125.60537 25.348908 C 125.67358 25.178397 125.72467 24.991044 125.75878 24.786431 C 125.80993 24.581817 125.87806 24.206561 125.96331 23.660926 C 126.03152 24.018999 126.1002 24.360191 126.1684 24.684162 C 126.25366 25.008133 126.31299 25.229551 126.3471 25.348908 L 126.67974 26.269876 L 128.57226 31.64118 L 131.8718 31.64118 L 137.29424 19.568529 L 133.20185 19.568529 L 130.51647 25.170213 C 130.1925 25.835207 130.03042 26.363752 130.03042 26.755927 L 130.10684 27.625211 C 129.98749 26.874962 129.86826 26.329385 129.7489 25.988362 L 129.49323 25.170213 L 127.57487 19.568529 L 124.30117 19.568529 L 122.45979 25.195505 L 122.22941 25.988362 L 122.05016 26.832354 L 121.82033 27.625211 C 121.73508 26.926115 121.6153 26.372297 121.46184 25.96307 L 121.12974 25.170213 L 118.72533 19.568529 L 115.01672 19.568529 z M 185.76189 19.568529 L 185.76189 31.64118 L 189.44522 31.64118 L 189.44522 19.568529 L 185.76189 19.568529 z M 109.21105 21.717271 C 109.9613 21.717271 110.55797 21.95572 111.0013 22.433152 C 111.46168 22.893532 111.69189 23.541851 111.69189 24.377356 L 106.52512 24.377356 C 106.61037 23.558902 106.89168 22.910583 107.36911 22.433152 C 107.86359 21.95572 108.47785 21.717271 109.21105 21.717271 z M 163.63832 21.717271 C 164.38857 21.717271 164.98524 21.95572 165.42857 22.433152 C 165.88895 22.893532 166.11916 23.541851 166.11916 24.377356 L 160.9524 24.377356 C 161.03765 23.558902 161.31896 22.910583 161.79639 22.433152 C 162.29087 21.95572 162.90512 21.717271 163.63832 21.717271 z M 86.191798 22.305591 C 87.061405 22.305591 87.786094 22.612169 88.365832 23.226009 C 88.94557 23.839849 89.235666 24.607393 89.235666 25.528153 C 89.235666 26.483016 88.94557 27.267592 88.365832 27.881432 C 87.786094 28.495273 87.053164 28.80185 86.166506 28.80185 C 85.262797 28.80185 84.520526 28.503514 83.940788 27.906725 C 83.378101 27.292884 83.096796 26.508858 83.096796 25.553996 C 83.096796 24.650286 83.395683 23.882742 83.992472 23.251851 C 84.589261 22.62096 85.322191 22.305591 86.191798 22.305591 z M 65.905763 36.331793 C 64.986477 36.331793 64.214628 36.638255 63.590422 37.251112 C 62.971891 37.858294 62.662306 38.615629 62.662306 39.523565 C 62.662306 40.431502 62.971891 41.191959 63.590422 41.804816 C 64.214628 42.411999 64.986477 42.715887 65.905763 42.715887 C 66.825048 42.715887 67.593775 42.409426 68.212306 41.796569 C 68.830838 41.183712 69.139872 40.425827 69.139872 39.523565 C 69.139872 38.615629 68.830838 37.858294 68.212306 37.251112 C 67.599449 36.638255 66.830723 36.331793 65.905763 36.331793 z M 76.221153 36.331793 C 75.301867 36.331793 74.530018 36.638255 73.905812 37.251112 C 73.28728 37.858294 72.977696 38.615629 72.977696 39.523565 C 72.977696 40.431502 73.28728 41.191959 73.905812 41.804816 C 74.530018 42.411999 75.301867 42.715887 76.221153 42.715887 C 77.140438 42.715887 77.909164 42.409426 78.527696 41.796569 C 79.146228 41.183712 79.455262 40.425827 79.455262 39.523565 C 79.455262 38.615629 79.146228 37.858294 78.527696 37.251112 C 77.914839 36.638255 77.146113 36.331793 76.221153 36.331793 z M 143.55737 36.331793 C 142.63809 36.331793 141.86679 36.638255 141.24258 37.251112 C 140.62405 37.858294 140.31447 38.615629 140.31447 39.523565 C 140.31447 40.431502 140.62405 41.191959 141.24258 41.804816 C 141.86679 42.411999 142.63809 42.715887 143.55737 42.715887 C 144.47666 42.715887 145.24594 42.409426 145.86447 41.796569 C 146.483 41.183712 146.79203 40.425827 146.79203 39.523565 C 146.79203 38.615629 146.483 37.858294 145.86447 37.251112 C 145.25161 36.638255 144.48233 36.331793 143.55737 36.331793 z M 56.288109 36.451107 L 56.288109 42.587777 L 59.479881 42.587777 L 59.479881 41.430381 L 57.573615 41.430381 L 57.573615 36.451107 L 56.288109 36.451107 z M 83.505871 36.451107 L 83.505871 42.587777 L 84.791377 42.587777 L 84.791377 40.32357 L 84.78258 40.000269 L 84.774332 39.813327 L 84.774332 39.676968 C 84.814055 39.773437 84.845105 39.841234 84.867804 39.880956 C 84.896177 39.920678 84.913263 39.946583 84.918938 39.957932 L 85.114678 40.204807 L 86.928023 42.587777 L 88.596212 42.587777 L 86.025749 39.370712 L 88.493943 36.451107 L 86.876888 36.451107 L 85.148768 38.638337 L 84.97887 38.859919 C 84.939147 38.91099 84.899278 38.970519 84.859556 39.038614 C 84.825509 39.101035 84.779944 39.194737 84.723198 39.319578 L 84.791377 38.799987 L 84.799625 38.510776 L 84.799625 36.451107 L 83.505871 36.451107 z M 101.22474 36.451107 L 101.22474 42.587777 L 103.36964 42.587777 C 103.68741 42.587777 103.95713 42.568117 104.17844 42.528395 C 104.40542 42.488673 104.61818 42.426021 104.81679 42.340902 C 105.30481 42.113918 105.68219 41.751051 105.9489 41.251686 C 106.2156 40.752321 106.34862 40.159058 106.34862 39.472431 C 106.34862 38.797153 106.21248 38.221527 105.9401 37.74486 C 105.66772 37.262519 105.27637 36.913066 104.76566 36.697431 C 104.51598 36.589614 104.2944 36.521817 104.10146 36.493444 C 103.90853 36.465071 103.57983 36.451107 103.11451 36.451107 L 101.22474 36.451107 z M 110.40803 36.451107 L 110.40803 42.587777 L 113.78729 42.587777 L 113.78729 41.464471 L 111.68474 41.464471 L 111.68474 40.026111 L 113.71087 40.026111 L 113.71087 38.927548 L 111.69354 38.927548 L 111.69354 37.574413 L 113.7785 37.574413 L 113.7785 36.451107 L 110.40803 36.451107 z M 117.08024 36.451107 L 119.42967 42.587777 L 120.65524 42.587777 L 123.01292 36.451107 L 121.64274 36.451107 L 120.27201 40.153672 L 120.17029 40.476973 C 120.11922 40.664235 120.07935 40.908045 120.05098 41.208799 C 120.05098 41.19745 120.03389 41.101175 119.99984 40.919588 C 119.97147 40.732326 119.94611 40.584791 119.92341 40.476973 L 119.82115 40.153672 L 118.45042 36.451107 L 117.08024 36.451107 z M 126.43397 36.451107 L 126.43397 42.587777 L 129.81323 42.587777 L 129.81323 41.464471 L 127.71068 41.464471 L 127.71068 40.026111 L 129.73626 40.026111 L 129.73626 38.927548 L 127.71893 38.927548 L 127.71893 37.574413 L 129.80444 37.574413 L 129.80444 36.451107 L 126.43397 36.451107 z M 133.94027 36.451107 L 133.94027 42.587777 L 137.13204 42.587777 L 137.13204 41.430381 L 135.22578 41.430381 L 135.22578 36.451107 L 133.94027 36.451107 z M 150.84264 36.451107 L 150.84264 42.587777 L 152.12815 42.587777 L 152.12815 40.298278 L 152.86877 40.298278 C 153.27734 40.298278 153.61486 40.244445 153.88156 40.136628 C 154.22204 40.000437 154.48606 39.776287 154.67332 39.464184 C 154.86058 39.15208 154.95428 38.777272 154.95428 38.340328 C 154.95428 37.761519 154.77827 37.301826 154.42644 36.96135 C 154.07462 36.620874 153.60354 36.451107 153.01338 36.451107 L 150.84264 36.451107 z M 159.1495 36.451107 L 158.14496 42.587777 L 159.38757 42.587777 L 159.89012 39.336623 C 159.90714 39.240154 159.92111 39.114852 159.93246 38.961638 C 159.94381 38.802749 159.9495 38.664032 159.9495 38.544865 L 159.93246 38.076409 C 159.96651 38.235298 159.99756 38.374564 160.02593 38.493731 C 160.05998 38.612898 160.09985 38.746469 160.14524 38.894008 C 160.16227 38.967778 160.18193 39.050089 160.20462 39.140883 C 160.233 39.226002 160.2589 39.291226 160.2816 39.336623 L 161.46484 42.587777 L 162.239 42.587777 L 163.43104 39.336623 L 163.56684 38.894008 L 163.77138 38.076409 L 163.75434 38.544865 C 163.75434 38.669706 163.76003 38.814119 163.77138 38.978682 C 163.78273 39.143246 163.79412 39.262853 163.80547 39.336623 L 164.31626 42.587777 L 165.55888 42.587777 L 164.54609 36.451107 L 163.28588 36.451107 L 162.19666 39.421297 C 162.04912 39.812844 161.96939 40.025604 161.95804 40.059651 C 161.88994 40.280961 161.85632 40.579154 161.85632 40.953677 C 161.85632 40.675622 161.83354 40.448349 161.78814 40.272436 C 161.74274 40.096523 161.65161 39.812844 161.51542 39.421297 L 160.41741 36.451107 L 159.1495 36.451107 z M 169.37087 36.451107 L 169.37087 42.587777 L 172.75013 42.587777 L 172.75013 41.464471 L 170.64812 41.464471 L 170.64812 40.026111 L 172.6737 40.026111 L 172.6737 38.927548 L 170.65637 38.927548 L 170.65637 37.574413 L 172.74188 37.574413 L 172.74188 36.451107 L 169.37087 36.451107 z M 176.87772 36.451107 L 176.87772 42.587777 L 178.16267 42.587777 L 178.16267 39.106793 L 178.12858 38.698268 C 178.12291 38.635848 178.10637 38.542146 178.078 38.417304 C 178.0553 38.286788 178.0294 38.150645 178.00102 38.008779 L 178.35841 38.621292 L 178.5712 38.95339 L 181.12517 42.587777 L 182.37603 42.587777 L 182.37603 36.451107 L 181.10812 36.451107 L 181.10812 39.838619 L 181.12517 40.213054 L 181.21864 40.936632 C 181.15622 40.806117 181.09669 40.689632 181.03994 40.587489 C 180.9832 40.485347 180.92624 40.389072 180.86949 40.298278 L 180.65671 39.974977 L 178.20556 36.451107 L 176.87772 36.451107 z M 186.15447 36.451107 L 186.15447 37.608502 L 187.38885 37.599705 L 187.38885 42.587777 L 188.6738 42.587777 L 188.6738 37.599705 L 189.93402 37.608502 L 189.93402 36.451107 L 186.15447 36.451107 z M 152.11935 37.506233 L 152.77475 37.506233 C 153.04713 37.506233 153.25732 37.580276 153.40486 37.727816 C 153.5524 37.875355 153.62644 38.079296 153.62644 38.340328 C 153.62644 38.964534 153.26872 39.276691 152.55372 39.276691 L 152.11935 39.276691 L 152.11935 37.506233 z M 65.905763 37.557368 C 66.439175 37.557368 66.890049 37.747345 67.258898 38.127543 C 67.627747 38.507741 67.812029 38.973129 67.812029 39.523565 C 67.812029 40.079676 67.627747 40.548187 67.258898 40.928385 C 66.890049 41.308583 66.439175 41.49856 65.905763 41.49856 C 65.366676 41.49856 64.912679 41.308583 64.54383 40.928385 C 64.174981 40.548187 63.99015 40.079676 63.99015 39.523565 C 63.99015 38.967454 64.171858 38.502067 64.535033 38.127543 C 64.903882 37.747345 65.361001 37.557368 65.905763 37.557368 z M 76.221153 37.557368 C 76.754565 37.557368 77.205439 37.747345 77.574288 38.127543 C 77.943137 38.507741 78.127419 38.973129 78.127419 39.523565 C 78.127419 40.079676 77.943137 40.548187 77.574288 40.928385 C 77.205439 41.308583 76.754565 41.49856 76.221153 41.49856 C 75.682066 41.49856 75.228069 41.308583 74.85922 40.928385 C 74.490371 40.548187 74.305539 40.079676 74.305539 39.523565 C 74.305539 38.967454 74.487248 38.502067 74.850423 38.127543 C 75.219272 37.747345 75.676391 37.557368 76.221153 37.557368 z M 143.55737 37.557368 C 144.09079 37.557368 144.54221 37.747345 144.91106 38.127543 C 145.27991 38.507741 145.46419 38.973129 145.46419 39.523565 C 145.46419 40.079676 145.27991 40.548187 144.91106 40.928385 C 144.54221 41.308583 144.09079 41.49856 143.55737 41.49856 C 143.01829 41.49856 142.56484 41.308583 142.19599 40.928385 C 141.82714 40.548187 141.64231 40.079676 141.64231 39.523565 C 141.64231 38.967454 141.82402 38.502067 142.18719 38.127543 C 142.55604 37.747345 143.01261 37.557368 143.55737 37.557368 z M 102.51025 37.599705 L 103.18269 37.599705 C 103.43238 37.599705 103.63374 37.616792 103.78696 37.650839 C 103.94585 37.679212 104.09026 37.733045 104.22077 37.81249 C 104.73716 38.118918 104.99549 38.675435 104.99549 39.481228 C 104.99549 40.792061 104.37687 41.447426 103.13981 41.447426 L 102.51025 41.447426 L 102.51025 37.599705 z M 49.598858 40.059651 L 49.598858 41.14117 L 52.313927 41.14117 L 52.313927 40.059651 L 49.598858 40.059651 z M 192.88661 40.059651 L 192.88661 41.14117 L 195.60168 41.14117 L 195.60168 40.059651 L 192.88661 40.059651 z "
       transform="scale(0.9928361,1.0072156)" />
  </g>
</svg>
