<?xml version="1.0" encoding="UTF-8" standalone="no"?>
<!-- Created with Inkscape (http://www.inkscape.org/) -->

<svg
   id="svg3363"
   sodipodi:version="0.32"
   inkscape:version="1.2.2 (732a01da63, 2022-12-09)"
   width="663.01959"
   height="104.90214"
   version="1.0"
   sodipodi:docname="PixarLogo.svg"
   inkscape:output_extension="org.inkscape.output.svg.inkscape"
   xmlns:inkscape="http://www.inkscape.org/namespaces/inkscape"
   xmlns:sodipodi="http://sodipodi.sourceforge.net/DTD/sodipodi-0.dtd"
   xmlns="http://www.w3.org/2000/svg"
   xmlns:svg="http://www.w3.org/2000/svg"
   xmlns:rdf="http://www.w3.org/1999/02/22-rdf-syntax-ns#"
   xmlns:cc="http://creativecommons.org/ns#"
   xmlns:dc="http://purl.org/dc/elements/1.1/">
  <metadata
     id="metadata3368">
    <rdf:RDF>
      <cc:Work
         rdf:about="">
        <dc:format>image/svg+xml</dc:format>
        <dc:type
           rdf:resource="http://purl.org/dc/dcmitype/StillImage" />
      </cc:Work>
    </rdf:RDF>
  </metadata>
  <defs
     id="defs3366">
    <inkscape:perspective
       sodipodi:type="inkscape:persp3d"
       inkscape:vp_x="0 : 523.08322 : 1"
       inkscape:vp_y="0 : 1000 : 0"
       inkscape:vp_z="744.09448 : 523.08322 : 1"
       inkscape:persp3d-origin="372.04724 : 347.68952 : 1"
       id="perspective3370" />
  </defs>
  <sodipodi:namedview
     inkscape:window-height="725"
     inkscape:window-width="1280"
     inkscape:pageshadow="2"
     inkscape:pageopacity="0.0"
     guidetolerance="10.0"
     gridtolerance="10.0"
     objecttolerance="10.0"
     borderopacity="1.0"
     bordercolor="#666666"
     pagecolor="#ffffff"
     id="base"
     showgrid="false"
     inkscape:zoom="1.6161919"
     inkscape:cx="316.48469"
     inkscape:cy="77.961039"
     inkscape:window-x="758"
     inkscape:window-y="164"
     inkscape:current-layer="svg3363"
     inkscape:showpageshadow="2"
     inkscape:pagecheckerboard="0"
     inkscape:deskcolor="#d1d1d1"
     inkscape:window-maximized="0" />
  <path
     style="fill:#000000;fill-opacity:1"
     d="m 100.11789,59.17806 c 0.0696,-1.389527 0.22845,-1.454847 4.936,-2.02931 l 4.49224,-0.54819 0.19416,-1.096376 c 0.2293,-1.294873 0.21769,-26.712036 -0.0191,-41.92478 L 109.55489,2.9014171 108.32147,2.537262 c -0.67839,-0.2002898 -2.69754,-0.4689771 -4.48702,-0.5970886 -3.31728,-0.2374842 -3.72231,-0.3960095 -3.73163,-1.46050763 -0.004,-0.44991 0.77544,-0.47966560493196 12.56436,-0.47966560493196 18.74435,0 24.1288,0.59670360493196 29.23089,3.23936143493196 3.75679,1.9458472 6.3276,5.3499006 6.6397,8.7917224 0.28522,3.145468 -1.09039,7.769975 -3.24113,10.895959 -3.09128,4.493033 -9.62543,8.657192 -16.28103,10.375777 -3.8983,1.006608 -4.52324,1.074619 -4.51881,0.491775 0.0105,-1.378216 0.29784,-1.643866 2.8866,-2.668479 3.23001,-1.278408 5.37192,-2.655861 7.07072,-4.547144 2.78032,-3.095344 3.86154,-6.468104 3.6892,-11.50815 -0.0975,-2.852312 -0.19197,-3.336059 -0.98,-5.020058 -2.15256,-4.5999119 -6.72987,-7.0391751 -14.04255,-7.4833132 l -2.95175,-0.1792785 -0.23632,1.2042419 c -0.26691,1.3601841 -0.2235,43.6559148 0.0505,49.2143708 0.16683,3.384183 0.21421,3.616845 0.76777,3.769899 0.32448,0.08971 2.68679,0.355367 5.24959,0.590344 2.56278,0.234982 4.81378,0.477304 5.00222,0.538497 0.18844,0.06119 0.34262,0.423485 0.34262,0.805101 v 0.693838 h -12.29123 c -6.76017,0 -13.7907,0.08062 -15.62339,0.179169 -2.76731,0.148795 -3.32891,0.113943 -3.31291,-0.205573 z"
     id="path3422"
     sodipodi:nodetypes="cccccccsssssssssssscccsssscccsc" />
  <path
     id="path3424"
     d="m 201.87454,58.852127 c 0.002,-0.339892 0.0942,-0.747345 0.20426,-0.905458 0.11006,-0.158111 1.63037,-0.440969 3.37848,-0.628574 1.74811,-0.187602 3.77033,-0.487196 4.49382,-0.665759 1.31529,-0.324623 1.31548,-0.324833 1.49586,-1.68643 0.38763,-2.925956 0.0919,-50.9499553 -0.31782,-51.6129041 -0.1016,-0.1643994 -2.13447,-0.5479173 -4.51748,-0.8522597 -2.38302,-0.3043425 -4.35343,-0.5739248 -4.37871,-0.5990785 -0.0253,-0.02515 -0.13048,-0.3825106 -0.23379,-0.7941404 l -0.18784,-0.74841113 h 12.65285 c 6.95907,0 13.60872,-0.080799 14.77701,-0.179556 L 231.36533,1.6506804e-7 231.16947,0.79235107 c -0.10773,0.43579333 -0.2791,0.87526263 -0.38085,0.97660413 -0.10175,0.1013365 -2.11577,0.4184173 -4.4756,0.7046227 -2.35984,0.2862065 -4.38207,0.6117452 -4.49382,0.723428 -0.27968,0.2794391 -0.39099,37.9287571 -0.13696,46.3218381 l 0.20608,6.808829 1.3561,0.334647 c 0.74586,0.184057 2.75411,0.456061 4.46279,0.604458 1.70869,0.148394 3.14134,0.304453 3.18368,0.346793 0.0423,0.04234 0.15346,0.38313 0.24693,0.757308 l 0.16992,0.680324 -14.10589,0.05955 c -7.75823,0.03275 -14.38165,0.127006 -14.71868,0.209453 -0.5002,0.12236 -0.61204,0.03635 -0.60863,-0.468079 z"
     style="fill:#000000;fill-opacity:1"
     sodipodi:nodetypes="csssssssccccccssscccsscccsc" />
  <path
     style="fill:#000000;fill-opacity:1"
     d="m 338.58292,60.130438 c -4.69657,-3.831176 -13.06516,-12.820263 -23.77964,-25.542817 -1.16911,-1.388211 -2.23457,-2.524014 -2.36772,-2.524014 -0.91911,0 -11.92148,16.791742 -14.95801,22.828783 l -0.84584,1.681647 2.65238,0.446574 c 1.45881,0.245619 3.03959,0.505231 3.51285,0.576925 0.8036,0.121732 1.18677,0.54111 1.18549,1.297501 -4.2e-4,0.237339 -2.82505,0.326793 -11.0578,0.350194 l -11.05726,0.03143 0.17243,-0.577162 c 0.28332,-0.948328 0.69811,-1.169497 2.82405,-1.505823 2.81993,-0.446116 3.5627,-0.872997 5.92385,-3.404523 2.81861,-3.021993 16.43468,-20.156056 19.31746,-24.308526 0.18525,-0.266839 -0.27102,-0.994507 -1.65814,-2.644486 -1.05255,-1.251994 -4.80247,-6.144233 -8.33315,-10.871643 -3.53068,-4.727404 -7.27062,-9.5776021 -8.31099,-10.7782125 -1.79563,-2.0722183 -1.98104,-2.2062056 -3.65569,-2.6418317 -0.97024,-0.2524013 -2.22457,-0.467282 -2.78735,-0.4775157 -0.90459,-0.016457 -1.02325,-0.097725 -1.02325,-0.7007851 0,-0.37519083 -0.0307,-0.72915373 -0.0682,-0.78659003 -0.0375,-0.057428 5.91777,-0.1753299 13.23402,-0.2620002 12.43143,-0.1472702 13.30194,-0.127041 13.29804,0.3090648 -0.008,0.89335943 -0.42256,1.08730543 -3.27727,1.53324203 -1.57966,0.2467609 -3.20987,0.5389857 -3.62267,0.6493858 l -0.75055,0.2007215 1.86371,2.8617869 c 3.70712,5.6924022 11.17546,16.0677972 11.5794,16.0866882 0.57519,0.0269 10.2446,-13.6458228 12.49956,-17.6746152 0.8206,-1.4661034 0.75925,-1.5131806 -2.77933,-2.1331553 -2.46633,-0.4321129 -2.64571,-0.5077342 -2.77278,-1.16899683 -0.0747,-0.3888514 -0.116,-0.7250855 -0.0917,-0.7471881 0.0243,-0.022104 4.55975,-0.083908 10.07886,-0.1373452 L 343.5624,1.365068e-6 343.3872,0.81951407 c -0.0964,0.45073213 -0.19337,0.84178303 -0.21557,0.86900093 -0.0222,0.027224 -1.25707,0.2980566 -2.74418,0.6018493 -2.62045,0.5353284 -2.74946,0.5968924 -4.18478,1.9969999 -1.69807,1.6564045 -8.93893,9.8450298 -14.16139,16.0150038 l -3.55623,4.201436 2.13064,2.734458 c 2.11511,2.714568 3.04989,4.009902 12.9339,17.922929 4.21139,5.928101 10.45509,14.508773 11.66482,16.030893 0.213,0.26799 -0.28855,0.341083 -2.34039,0.341083 h -2.61146 z"
     id="path3985" />
  <path
     style="fill:#000000;fill-opacity:1"
     d="m 558.19089,59.531776 c -4.57577,-3.39641 -14.32321,-13.105348 -24.03866,-23.943682 l -3.89252,-4.342415 -3.93831,0.165082 c -2.16607,0.0908 -4.03671,0.253978 -4.15698,0.362641 -0.26227,0.236955 0.0848,23.469865 0.35726,23.910619 0.26353,0.426391 1.75581,0.718784 5.61277,1.099754 3.17689,0.313796 3.31354,0.353158 3.47621,1.001275 0.0931,0.371051 0.13282,0.708654 0.0882,0.750231 -0.0446,0.04158 -6.5895,0.119776 -14.54421,0.173774 l -14.4631,0.09818 c -0.0377,-0.536052 0.0122,-0.985662 0.33952,-1.418819 0.18673,-0.142375 2.23076,-0.469382 4.54229,-0.726683 2.34626,-0.261164 4.28704,-0.604145 4.39353,-0.776427 0.10489,-0.169737 0.27903,-1.354931 0.38695,-2.633767 0.2187,-2.591398 -0.0942,-48.5286826 -0.33886,-49.7520639 -0.19367,-0.9684065 -1.13386,-1.2723795 -4.57029,-1.4776303 -4.59335,-0.2743434 -4.75314,-0.3154795 -4.75314,-1.22366733 V 1.6506804e-7 L 512.53732,0.00996017 c 27.38738,0.027687 33.50415,0.9509511 37.79957,5.70547113 2.67609,2.9621127 2.95268,6.8654967 0.79826,11.2653957 -1.60674,3.281393 -5.84435,7.709103 -9.24909,9.664024 l -1.4108,0.810048 0.98144,1.68627 c 1.40384,2.412046 9.18246,14.042278 12.39064,18.525932 3.23457,4.520527 4.9373,6.708238 7.95956,10.226689 l 2.25195,2.621679 -1.7118,0.2981 c -0.94149,0.163953 -1.78289,0.298097 -1.86975,0.298097 -0.0869,0 -1.11576,-0.710948 -2.28641,-1.579886 z M 529.42388,28.212921 c 3.77746,-0.754586 6.30618,-2.041146 8.73584,-4.444625 2.22836,-2.204357 3.19346,-3.981683 3.81374,-7.023331 1.28216,-6.287245 -2.82608,-11.4904527 -10.65289,-13.4922151 -2.98839,-0.7643049 -8.43773,-1.2808063 -8.87738,-0.8414244 -0.24953,0.2493824 -0.35414,3.5998277 -0.42229,13.5251005 l -0.0906,13.193589 2.39924,-0.189361 c 1.31958,-0.104148 3.61203,-0.431628 5.09431,-0.727733 z"
     id="path4036"
     sodipodi:nodetypes="ccccssssscccssssscccsscccscccsccsssscccc" />
  <path
     id="path4038"
     d="m 386.26891,58.418769 c 0.14188,-0.966726 -0.11019,-0.876445 4.42924,-1.586337 l 3.13848,-0.490809 1.01511,-1.910376 c 1.94259,-3.65576 6.02187,-13.68193 14.32383,-35.20549 3.38227,-8.768841 6.12487,-16.2888388 5.9899,-16.4238148 -0.0648,-0.064764 -1.32877,-0.304565 -2.80889,-0.532888 -4.12138,-0.635782 -3.91935,-0.563505 -3.91827,-1.40174903 l 9.5e-4,-0.745308 12.99852,-0.086507 c 11.98475,-0.079765 12.98506,-0.051417 12.82585,0.363457 -0.095,0.247483 -0.17267,0.60155603 -0.17267,0.78682803 0,0.219166 -1.09808,0.509063 -3.14298,0.829767 -1.72865,0.271103 -3.20465,0.592683 -3.28,0.714624 -0.0754,0.121935 1.33047,4.374573 3.1241,9.4502918 6.53532,18.494136 12.06994,32.690285 15.844,40.639437 l 1.57305,3.313273 1.33292,0.313676 c 1.27326,0.299631 4.93127,0.82377 5.87321,0.84154 0.28077,0.0053 0.48951,0.300654 0.56212,0.795395 l 0.1155,0.786968 -14.34412,0.119888 c -7.88926,0.06594 -14.36026,0.110933 -14.37999,0.09999 -0.0197,-0.01094 0.0221,-0.40015 0.093,-0.864912 l 0.12894,-0.84502 3.72878,-0.459296 c 4.71278,-0.580502 5.03991,-0.664463 4.7913,-1.229688 -0.30956,-0.703774 -2.68143,-7.408019 -4.35629,-12.313348 -0.84562,-2.476666 -2.15424,-6.130259 -2.90803,-8.119096 l -1.37053,-3.61607 h -1.53614 c -4.25234,0 -18.19048,0.869932 -18.47355,1.153003 -0.59272,0.592727 -4.41781,14.386054 -5.43229,19.588951 -0.38078,1.952871 -0.69233,3.596956 -0.69233,3.653517 0,0.208837 1.30716,0.491154 4.36657,0.94309 3.08237,0.455327 3.14002,0.476924 3.22483,1.208069 l 0.0864,0.744452 -10.0476,0.0024 c -5.52618,0.0013 -10.67326,0.07756 -11.43795,0.169444 l -1.39036,0.167074 z m 40.17985,-29.915903 c -0.14306,-0.376267 -0.44759,-1.046669 -0.67673,-1.489771 -0.39072,-0.755569 -3.87661,-10.853907 -6.5934,-19.1004938 -0.66528,-2.019406 -1.25083,-3.712885 -1.30123,-3.763288 -0.32518,-0.325181 -9.16715,23.3285268 -9.16715,24.5236298 0,0.127476 3.10096,0.26679 6.89101,0.309586 3.79004,0.0428 7.83974,0.106315 8.9993,0.141142 l 2.1083,0.06332 z"
     style="fill:#000000;fill-opacity:1"
     sodipodi:nodetypes="ccccssscccssssscccscccscccsscccsssscccccccsssssccc" />
  <path
     style="fill:#000000;fill-opacity:1"
     d="m 0.040648,102.45118 c 0.038226,-0.14294 0.09233,-0.16009 0.908478,-0.28811 1.294561,-0.20304 1.153229,-0.11418 1.511239,-0.95024 0.481027,-1.12335 1.240132,-3.043527 2.279924,-5.767125 C 5.863559,92.503442 8.055423,86.647892 8.08347,86.51442 8.099167,86.43971 7.916586,86.391016 7.169503,86.270662 6.656032,86.187942 6.232857,86.117924 6.229116,86.115065 6.225376,86.112165 6.205591,86.039845 6.185155,85.954267 L 6.148,85.79867 h 3.2052175 3.2052175 l -0.01819,0.155431 c -0.01749,0.149444 -0.05176,0.161024 -0.889538,0.300556 -0.47924,0.07981 -0.88916,0.163911 -0.910935,0.186881 -0.02177,0.02297 0.190707,0.755953 0.472182,1.628851 1.504218,4.664838 3.733243,10.587094 4.994466,13.269721 l 0.284015,0.6041 0.345443,0.0717 c 0.189994,0.0394 0.653533,0.11769 1.030087,0.17389 0.63964,0.0955 0.687368,0.1124 0.726081,0.25777 l 0.04144,0.1556 -3.506948,10e-4 c -1.92882,5.6e-4 -3.506948,-0.0223 -3.506948,-0.0508 0,-0.20534 0.134983,-0.27633 0.604303,-0.3178 0.647501,-0.0572 1.724456,-0.22506 1.818989,-0.28348 0.05585,-0.0345 -0.06711,-0.47189 -0.46627,-1.65846 -0.650043,-1.932387 -1.492252,-4.338322 -1.771236,-5.059882 l -0.202242,-0.523077 -1.438827,0.04173 c -1.4424815,0.04184 -3.100062,0.126354 -3.943584,0.201065 l -0.450873,0.03993 -0.308742,0.972985 c -0.927966,2.924429 -1.671187,5.840419 -1.523484,5.977309 0.067089,0.0622 1.312954,0.3171 1.549747,0.3171 0.114873,0 0.177583,0.0453 0.221063,0.15965 0.033385,0.0878 0.060699,0.16483 0.060699,0.17116 0,0.006 -1.298054,0.0115 -2.884564,0.0115 H 0 Z M 11.43287,94.152787 c 0,-0.110323 -1.6135425,-4.766833 -2.1807295,-6.293357 l -0.390574,-1.051184 -0.10737,0.21096 c -0.1613705,0.31706 -0.7407535,1.80223 -1.4905455,3.820815 -0.919306,2.474957 -1.146655,3.138245 -1.093795,3.191141 0.024887,0.02491 0.932169,0.06099 2.016182,0.08018 1.0840135,0.01919 2.258011,0.0402 2.608883,0.04668 0.350872,0.0065 0.637949,0.0041 0.637949,-0.0052 z"
     id="path4092" />
  <path
     style="fill:#000000;fill-opacity:1"
     d="M 56.060432,99.702403 C 52.593293,95.372603 46.900095,88.367086 46.62797,88.0957 l -0.148979,-0.148577 0.03766,3.179476 c 0.07945,6.706884 0.20456,10.677941 0.339047,10.761041 0.08,0.0494 0.804879,0.14278 1.865004,0.24012 0.42492,0.039 0.777093,0.0736 0.782609,0.0768 0.0055,0.003 0.02679,0.0727 0.04729,0.1543 l 0.03726,0.14845 h -3.18284 c -2.626103,0 -3.177529,-0.0139 -3.152473,-0.0791 0.0167,-0.0435 0.03037,-0.11212 0.03037,-0.1524 0,-0.0493 0.259676,-0.1068 0.793225,-0.17572 0.960131,-0.12402 1.211175,-0.18877 1.250735,-0.32261 0.121228,-0.41009 0.303806,-5.176551 0.454459,-11.864281 0.046,-2.04184 0.04436,-2.739455 -0.0065,-2.770879 -0.07846,-0.04849 -0.403299,-0.09042 -1.592293,-0.205519 -0.469448,-0.04544 -0.86015,-0.09076 -0.868224,-0.100711 -0.0081,-0.01 -0.03134,-0.08773 -0.05171,-0.172831 l -0.03703,-0.154749 1.350971,-0.03899 c 0.743033,-0.02144 1.778862,-0.05463 2.30184,-0.07373 l 0.950871,-0.03474 0.445057,0.614771 c 1.137035,1.570618 3.858928,5.056531 7.491622,9.59446 1.358047,1.696464 2.588233,3.238734 2.733753,3.427284 l 0.264577,0.342815 0.01848,-1.353125 c 0.04075,-2.984241 -0.135259,-10.910767 -0.259207,-11.673605 -0.03482,-0.214296 -0.04077,-0.218433 -0.402454,-0.279808 -0.201913,-0.03426 -0.768263,-0.107606 -1.258555,-0.162976 -0.490293,-0.05537 -0.895955,-0.103343 -0.901469,-0.106603 -0.0055,-0.0033 -0.02679,-0.07273 -0.04729,-0.15438 l -0.03726,-0.14845 h 3.062614 c 3.034889,0 3.062292,0.0011 3.026938,0.118861 -0.01962,0.06537 -0.05273,0.136861 -0.07357,0.158872 -0.02084,0.02201 -0.438726,0.11084 -0.928631,0.197392 -0.489902,0.08656 -0.901717,0.16836 -0.915134,0.181781 -0.04043,0.04042 -0.173256,1.472203 -0.242297,2.611711 -0.08115,1.339266 -0.155865,4.346277 -0.239961,9.657275 -0.03597,2.271695 -0.07072,4.232035 -0.07722,4.356325 -0.01151,0.22001 -0.102138,0.11321 -3.428816,-4.041205 z"
     id="path4145"
     sodipodi:nodetypes="ccccssscccssssssssccccccscccsssscccsssssssc" />
  <path
     sodipodi:nodetypes="ccccssscccssssssssccccccscccsssscccsssssssc"
     id="path4210"
     d="m 343.04628,99.684383 c -3.5193,-4.39495 -9.29816,-11.505873 -9.57437,-11.781342 l -0.15122,-0.150812 0.0382,3.227311 c 0.0806,6.807793 0.20763,10.8386 0.34415,10.92296 0.0812,0.0502 0.81699,0.14492 1.89305,0.24373 0.43132,0.0396 0.78879,0.0747 0.79439,0.078 0.006,0.003 0.0272,0.0737 0.048,0.15663 l 0.0378,0.15068 h -3.23073 c -2.66562,0 -3.22534,-0.0141 -3.19991,-0.0803 0.017,-0.0442 0.0308,-0.11379 0.0308,-0.15469 0,-0.05 0.26359,-0.1084 0.80516,-0.17836 0.97458,-0.12588 1.2294,-0.19161 1.26956,-0.32746 0.12305,-0.41626 0.30837,-5.254439 0.46129,-12.042796 0.0467,-2.07256 0.045,-2.780671 -0.007,-2.812568 -0.0796,-0.04922 -0.40936,-0.09178 -1.61624,-0.208612 -0.47652,-0.04612 -0.8731,-0.09213 -0.88129,-0.102226 -0.008,-0.01011 -0.0318,-0.08905 -0.0525,-0.175431 l -0.0376,-0.157077 1.37129,-0.03958 c 0.75422,-0.02177 1.80563,-0.05545 2.33647,-0.07484 l 0.96518,-0.03527 0.45176,0.624021 c 1.15414,1.594249 3.91699,5.132609 7.60434,9.738819 1.37847,1.721984 2.62717,3.287474 2.77488,3.478844 l 0.26856,0.347956 0.0188,-1.373456 c 0.0414,-3.029146 -0.13729,-11.074935 -0.26311,-11.849252 -0.0353,-0.21752 -0.0414,-0.221719 -0.40851,-0.284017 -0.20495,-0.03478 -0.77982,-0.109226 -1.27749,-0.165429 -0.49766,-0.0562 -0.90943,-0.104897 -0.91503,-0.108206 -0.006,-0.0033 -0.0272,-0.07382 -0.048,-0.156704 l -0.0378,-0.150682 h 3.10869 c 3.08055,0 3.10836,0.0011 3.07248,0.120648 -0.0199,0.06636 -0.0535,0.13892 -0.0747,0.161263 -0.0212,0.02234 -0.44533,0.112507 -0.94261,0.200362 -0.49727,0.08786 -0.91528,0.170892 -0.9289,0.184516 -0.041,0.04103 -0.17586,1.494353 -0.24594,2.651007 -0.0824,1.359414 -0.15822,4.411671 -0.24358,9.802574 -0.0365,2.305866 -0.0718,4.295706 -0.0784,4.421866 -0.0117,0.22333 -0.10368,0.1149 -3.48041,-4.101996 z"
     style="fill:#000000;fill-opacity:1" />
  <path
     id="path4147"
     d="m 88.447293,102.6661 c 0,-0.006 0.02622,-0.08 0.05827,-0.16432 0.04796,-0.12614 0.0982,-0.15386 0.283832,-0.1566 0.334346,-0.005 2.096923,-0.26463 2.148922,-0.31664 0.166927,-0.16692 0.178539,-14.657839 0.01188,-14.824497 -0.03102,-0.03101 -0.463207,-0.09697 -2.080517,-0.317475 -0.278323,-0.03795 -0.330195,-0.06552 -0.364301,-0.193631 l -0.03977,-0.149387 h 3.485736 c 3.45786,0 3.485451,9.56e-4 3.449861,0.119508 -0.01973,0.06573 -0.05302,0.137567 -0.07397,0.15964 -0.02096,0.02207 -0.567696,0.113203 -1.214984,0.202518 l -1.176885,0.162391 -0.04808,0.33527 c -0.06302,0.439494 -0.06016,13.462133 0.0031,14.063913 0.05768,0.54874 -0.0837,0.48086 1.384933,0.66495 1.079628,0.13534 1.124588,0.15069 1.159004,0.39554 0.0023,0.0164 -1.568826,0.0299 -3.491415,0.0299 -1.922588,0 -3.495615,-0.005 -3.495614,-0.011 z"
     style="fill:#000000;fill-opacity:1"
     sodipodi:nodetypes="cssssscccsscccssssc" />
  <path
     style="fill:#000000;fill-opacity:1"
     d="m 122.36541,102.63589 c 0.0169,-0.044 0.0307,-0.1146 0.0307,-0.15687 0,-0.0518 0.22005,-0.11007 0.6758,-0.17886 1.0571,-0.15955 1.11266,-0.18034 1.18129,-0.44212 0.2842,-1.08394 1.0243,-14.399667 1.0243,-14.674697 0,-0.05983 -0.39556,-0.14239 -1.29155,-0.26955 -0.39648,-0.05626 -0.72542,-0.10567 -0.73099,-0.10978 -0.006,-0.0041 -0.0271,-0.07501 -0.0478,-0.15754 l -0.0376,-0.15005 h 2.97697 c 2.4544,0 2.97159,0.01404 2.94628,0.08 -0.0169,0.044 -0.0307,0.11255 -0.0307,0.15233 0,0.04438 -0.27747,0.12752 -0.71827,0.2152 -0.39505,0.0786 -0.75121,0.16325 -0.79147,0.18814 -0.0544,0.0336 9.6e-4,0.26658 0.21523,0.90622 0.8619,2.5729 4.83342,11.02055 4.95992,11.14705 0.02,0.02 0.0471,0.0251 0.0603,0.0113 0.0985,-0.10263 5.79597,-11.90465 5.79597,-12.04704 0,-0.0361 -0.46909,-0.14328 -1.04665,-0.23913 -0.59498,-0.09874 -0.69269,-0.14433 -0.69452,-0.32398 -8.1e-4,-0.0788 0.34583,-0.0901 2.76306,-0.0901 2.27703,0 2.75857,0.01409 2.73328,0.08 -0.0169,0.044 -0.0307,0.11459 -0.0307,0.15687 0,0.05179 -0.22036,0.1103 -0.67582,0.17944 -0.3717,0.05641 -0.78599,0.12976 -0.92063,0.16299 l -0.24483,0.06044 0.0844,0.46106 c 0.35298,1.92776 0.3037,13.198067 0.58465,14.260817 0.0689,0.26062 0.13476,0.28617 1.13672,0.44093 0.60441,0.0934 0.78095,0.17323 0.78094,0.35332 0,0.044 -0.99757,0.0637 -3.23133,0.0639 l -3.23132,2.7e-4 0.0232,-0.15821 c 0.0222,-0.15108 0.0443,-0.16005 0.49001,-0.19893 0.70776,-0.0617 1.97601,-0.24547 2.0237,-0.29318 0.0509,-0.0509 0.009,-1.13868 -0.0716,-4.216057 -0.0645,-2.44564 0.0439,-8.95734 -0.0423,-9.25111 l -0.0529,-0.18022 -0.16372,0.36044 c -0.28121,0.61908 -1.87832,3.28034 -3.77467,7.34901 -1.89893,4.074177 -2.63918,5.944427 -2.78328,6.223597 l -0.0911,0.17653 -0.0764,-0.14649 c -0.0949,-0.182 -2.07247,-5.370517 -4.13815,-10.369997 -0.87112,-2.10836 -1.96131,-3.84464 -1.97341,-3.8584 -0.0534,-0.06077 0.0599,-0.01332 0.1057,3.11717 0.0477,3.25553 -0.17691,5.20935 -0.19381,7.52864 -0.0101,1.390637 -0.15622,3.201687 -0.0911,3.266797 0.0246,0.0247 0.58904,0.1134 1.25418,0.19718 1.18852,0.14971 1.21004,0.15494 1.24991,0.30426 l 0.0406,0.15193 -2.99552,-0.002 c -2.46931,-0.001 -2.99012,-0.0158 -2.96483,-0.0817 z"
     id="path4265"
     sodipodi:nodetypes="csssssscccsssssssssssssscccssscccssscccscccsssssscccc" />
  <path
     style="fill:#000000;fill-opacity:1"
     d="m 406.1719,104.64804 c 0.21881,-1.50883 0.32876,-3.02977 0.37431,-5.177957 l 0.0408,-1.92649 0.21528,0.07436 0.21529,0.07435 0.0361,0.7733 c 0.0619,1.3276 0.0971,1.52687 0.34257,1.942747 0.28707,0.48628 1.02384,1.17719 1.54765,1.45129 0.69551,0.36396 1.21263,0.49293 1.96949,0.49117 0.77631,-0.002 1.24374,-0.10792 1.87991,-0.42679 1.33037,-0.66683 1.96181,-2.157787 1.56723,-3.700567 -0.27703,-1.083183 -0.84829,-1.690473 -2.84778,-3.027405 -1.77153,-1.184492 -2.44014,-1.697883 -3.02414,-2.322069 -1.22825,-1.312783 -1.51347,-2.89654 -0.78582,-4.363445 0.41746,-0.841568 0.9909,-1.414707 1.8321,-1.831107 0.80538,-0.398678 1.28057,-0.495726 2.42736,-0.495736 1.09652,-1.1e-5 1.92726,0.132988 2.60718,0.417398 0.19779,0.08273 0.40272,0.163944 0.45541,0.180475 0.0802,0.02515 0.12792,-0.131895 0.29263,-0.96226 l 0.1968,-0.992318 0.20465,-0.03839 c 0.11255,-0.02111 0.21455,-0.02841 0.22666,-0.01621 0.0121,0.0122 -0.0301,0.413255 -0.0939,0.891236 -0.19675,1.475289 -0.35599,3.161599 -0.39488,4.181521 -0.0347,0.909274 -0.0446,0.972897 -0.14763,0.943975 -0.36262,-0.101833 -0.33339,-0.02273 -0.36098,-0.976696 -0.0326,-1.128479 -0.13103,-1.375651 -0.81472,-2.046835 -0.50747,-0.49819 -0.98441,-0.771973 -1.63616,-0.939206 -0.45981,-0.11798 -1.59459,-0.08655 -2.04057,0.05653 -1.27837,0.410123 -1.9771,1.360029 -1.89384,2.574662 0.0776,1.131977 0.62308,1.696647 3.33204,3.449191 1.44217,0.933006 2.04491,1.392639 2.61453,1.993791 0.72227,0.76226 1.11865,1.491826 1.29129,2.376732 0.10817,0.554407 0.0446,1.732257 -0.12209,2.261297 -0.57169,1.814706 -2.06573,3.012696 -4.19593,3.364486 -1.05501,0.17423 -2.80006,0.0323 -3.91637,-0.31863 -0.25855,-0.0813 -0.4772,-0.13906 -0.48589,-0.12841 -0.009,0.0107 -0.11641,0.50484 -0.2394,1.0982 -0.28179,1.35947 -0.25364,1.2694 -0.40985,1.31128 -0.27424,0.0735 -0.29861,0.0531 -0.25938,-0.21747 z"
     id="path4316"
     sodipodi:nodetypes="ccccccsssssssssssscccssssssssssssssssssc" />
  <path
     id="path4328"
     d="m 293.24668,102.98601 c -2.19758,-0.26737 -3.81263,-1.01591 -5.18924,-2.40511 -1.21859,-1.229737 -1.88701,-2.470017 -2.17798,-4.041293 -0.16037,-0.866014 -0.14484,-2.510716 0.0315,-3.332313 0.38152,-1.777993 1.12908,-3.151049 2.42136,-4.44736 2.16489,-2.171647 4.91086,-3.074934 8.42437,-2.771194 1.39189,0.120328 2.53536,0.424459 3.60154,0.957908 2.26512,1.13333 3.70468,2.962641 4.21525,5.356501 0.12523,0.587189 0.14148,2.003665 0.0318,2.777457 -0.61707,4.355377 -3.89102,7.431564 -8.4414,7.931504 -0.76884,0.0845 -2.1068,0.0725 -2.9172,-0.0261 z m 3.99831,-0.92223 c 2.87831,-0.4631 4.89758,-2.437957 5.53407,-5.412317 0.17908,-0.83681 0.19429,-2.386163 0.031,-3.157978 -0.70158,-3.316322 -3.21105,-5.84834 -6.51126,-6.569741 -0.80297,-0.175517 -2.50016,-0.16043 -3.35657,0.02984 -3.5211,0.78231 -5.5557,3.297974 -5.5557,6.869301 0,2.985179 1.89736,5.991789 4.70021,7.448065 1.62959,0.84669 3.26298,1.09774 5.15823,0.79283 z"
     style="fill:#000000;fill-opacity:1"
     sodipodi:nodetypes="csssssssssccssssssc" />
  <path
     style="fill:#000000;fill-opacity:1"
     d="m 529.0158,102.72479 c 0,-0.0143 0.0247,-0.091 0.0549,-0.17042 0.0505,-0.13275 0.0975,-0.14763 0.58381,-0.18485 0.77511,-0.0593 1.715,-0.21649 1.80341,-0.30158 0.23946,-0.23044 0.26121,-14.601089 0.0225,-14.839831 -0.0504,-0.05045 -1.15315,-0.226495 -1.98556,-0.316992 -0.38508,-0.04187 -0.47635,-0.09292 -0.47807,-0.267424 -7.8e-4,-0.07918 0.62852,-0.08966 5.31324,-0.08849 5.53419,0.0014 5.56938,0.0027 7.18893,0.272812 1.98798,0.331542 3.33359,0.948276 4.4946,2.060025 0.60271,0.57713 0.94907,1.048498 1.26163,1.716959 0.46522,0.994921 0.61693,2.032184 0.48497,3.315773 -0.33691,3.277266 -2.22843,5.89721 -5.33168,7.384908 -1.68271,0.8067 -3.40807,1.22671 -5.67819,1.38225 -0.86863,0.0595 -7.73445,0.0922 -7.73445,0.0369 z m 8.9218,-0.81634 c 2.31541,-0.24512 4.51582,-1.22702 5.96203,-2.660467 0.89662,-0.88871 1.54475,-1.995337 1.86648,-3.186861 0.14607,-0.540974 0.15808,-0.676422 0.15808,-1.783004 0,-1.10801 -0.0119,-1.242329 -0.15977,-1.796336 -0.19017,-0.71273 -0.63723,-1.645489 -1.0493,-2.189308 -1.58395,-2.090379 -4.3572,-3.057858 -8.81337,-3.07464 -0.77392,-0.0029 -1.61283,0.01691 -1.86424,0.04407 l -0.45712,0.04937 -0.0346,0.22008 c -0.019,0.121047 -0.0665,1.809841 -0.10553,3.752878 -0.0544,2.708124 -0.0546,4.273598 -9.7e-4,6.706316 0.0385,1.74544 0.0858,3.271202 0.10521,3.390572 0.0411,0.25319 0.11878,0.28643 1.03992,0.44512 1.05984,0.18257 2.15222,0.20936 3.35316,0.0822 z"
     id="path4378" />
  <path
     id="path4432"
     d="m 213.51538,102.15593 c 0.0201,-0.0801 0.0409,-0.1472 0.0464,-0.14921 0.005,-0.002 0.63308,-0.0703 1.39482,-0.15171 0.76175,-0.0814 1.40418,-0.1672 1.42764,-0.19059 0.0234,-0.0234 0.0592,-0.74181 0.0795,-1.59653 0.0471,-1.984617 0.0465,-10.649649 -9.2e-4,-11.838772 l -0.036,-0.903195 -1.34023,0.0055 c -1.84272,0.0075 -3.17766,0.144642 -4.21713,0.433202 -0.55004,0.152692 -0.75721,0.261618 -0.82208,0.432243 -0.0286,0.07532 -0.10712,0.447724 -0.1744,0.827566 -0.237,1.337826 -0.22095,1.286279 -0.42213,1.356408 -0.0996,0.03472 -0.18755,0.05645 -0.19547,0.0483 -0.008,-0.0082 0.0337,-0.539266 0.0924,-1.180244 0.13743,-1.500237 0.23223,-3.017128 0.23223,-3.71616 v -0.552019 l 0.18939,0.03858 0.18938,0.03858 0.0383,0.542624 c 0.0211,0.298445 0.0544,0.628429 0.0741,0.733298 l 0.0358,0.190671 0.50862,0.03679 c 3.004,0.217295 11.81281,0.208916 14.05286,-0.01336 l 0.38019,-0.03773 0.12804,-0.524436 c 0.0704,-0.288441 0.12993,-0.593487 0.13224,-0.677883 0.003,-0.107919 0.0431,-0.163874 0.13532,-0.188584 0.24367,-0.0653 0.34513,-0.04408 0.31199,0.06525 -0.057,0.187966 -0.26622,1.775877 -0.47374,3.594976 -0.11313,0.991735 -0.21619,1.813664 -0.22904,1.826506 -0.0128,0.01284 -0.1009,0.0063 -0.19571,-0.0145 l -0.17236,-0.03786 0.008,-1.264211 0.008,-1.264213 -0.37876,-0.126024 c -0.82878,-0.275768 -2.8984,-0.527064 -4.81531,-0.584686 l -1.17338,-0.03527 -0.046,0.984838 c -0.0596,1.276841 -0.0597,9.187521 -1.6e-4,11.56956 l 0.0461,1.844125 0.15453,0.0309 c 0.085,0.017 0.73103,0.0893 1.43563,0.16057 0.7046,0.0713 1.28551,0.13226 1.29092,0.13542 0.005,0.003 0.0263,0.0713 0.0464,0.15133 l 0.0365,0.14556 h -3.90946 -3.90945 z"
     style="fill:#000000;fill-opacity:1" />
  <path
     style="fill:#000000;fill-opacity:1"
     d="m 492.85147,102.32844 c -2.29765,-0.35264 -3.93521,-1.70762 -4.65494,-3.851667 -0.37841,-1.127248 -0.37553,-1.085243 -0.42594,-6.218639 -0.0253,-2.573189 -0.0642,-4.76097 -0.0866,-4.86173 -0.0456,-0.205523 -0.0599,-0.210422 -1.14715,-0.394671 -0.56381,-0.09555 -0.65745,-0.139849 -0.6592,-0.311904 -7.7e-4,-0.07547 0.37506,-0.08611 3.0416,-0.08611 2.66654,0 3.04237,0.01064 3.04159,0.08611 -4.8e-4,0.04736 -0.0199,0.113815 -0.0431,0.147684 -0.0232,0.03386 -0.55518,0.129249 -1.18219,0.211962 -0.62701,0.08271 -1.15322,0.163587 -1.16935,0.179722 -0.0659,0.06589 -0.13745,4.124885 -0.11195,6.349257 0.0293,2.551275 0.0744,3.075188 0.36055,4.181089 0.6159,2.380577 2.10399,3.748297 4.24882,3.905127 1.19671,0.0875 2.29433,-0.091 3.17206,-0.51583 1.0066,-0.48722 1.77442,-1.547627 2.09394,-2.891857 0.1679,-0.706394 0.20806,-1.170146 0.24354,-2.812858 0.0325,-1.504894 -0.0515,-8.159497 -0.10369,-8.211662 -0.0307,-0.03074 -1.44503,-0.236524 -1.97238,-0.286992 -0.37004,-0.03541 -0.4111,-0.05228 -0.4632,-0.190304 l -0.0572,-0.151448 h 2.85186 2.85186 l -0.0523,0.150089 c -0.0487,0.139696 -0.10453,0.160549 -0.80648,0.301136 -0.4148,0.08307 -0.77233,0.180409 -0.79451,0.2163 -0.0756,0.122329 -0.12601,3.000914 -0.0954,5.446132 0.0328,2.61536 -0.005,3.517826 -0.18911,4.492693 -0.55698,2.952651 -2.4913,4.788051 -5.42278,5.145471 -0.68578,0.0836 -1.82884,0.0711 -2.46843,-0.0271 z"
     id="path4482" />
  <path
     id="path4485"
     d="m 168.89216,102.45118 c 0.0382,-0.14294 0.0923,-0.16009 0.90848,-0.28811 1.29456,-0.20304 1.15323,-0.11418 1.51124,-0.95024 0.48102,-1.12335 1.24013,-3.043527 2.27992,-5.767125 1.12327,-2.942263 3.31513,-8.797813 3.34318,-8.931285 0.0157,-0.07471 -0.16688,-0.123404 -0.91396,-0.243758 -0.51348,-0.08272 -0.93665,-0.152738 -0.94039,-0.155597 -0.004,-0.0029 -0.0235,-0.07522 -0.044,-0.160798 l -0.0372,-0.155597 h 3.20522 3.20522 l -0.0182,0.155431 c -0.0175,0.149444 -0.0517,0.161024 -0.88953,0.300556 -0.47924,0.07981 -0.88916,0.163911 -0.91094,0.186881 -0.0218,0.02297 0.19071,0.755953 0.47218,1.628851 1.50422,4.664838 3.73325,10.587094 4.99447,13.269721 l 0.28402,0.6041 0.34544,0.0717 c 0.18999,0.0394 0.65353,0.11769 1.03009,0.17389 0.63964,0.0955 0.68736,0.1124 0.72608,0.25777 l 0.0414,0.1556 -3.50694,10e-4 c -1.92883,5.6e-4 -3.50695,-0.0223 -3.50695,-0.0508 0,-0.20534 0.13498,-0.27633 0.6043,-0.3178 0.6475,-0.0572 1.72446,-0.22506 1.81899,-0.28348 0.0558,-0.0345 -0.0671,-0.47189 -0.46627,-1.65846 -0.65004,-1.932387 -1.49225,-4.338322 -1.77124,-5.059882 l -0.20224,-0.523077 -1.43883,0.04173 c -1.44248,0.04184 -3.10006,0.126354 -3.94358,0.201065 l -0.45087,0.03993 -0.30874,0.972985 c -0.92797,2.924429 -1.67119,5.840419 -1.52349,5.977309 0.0671,0.0622 1.31295,0.3171 1.54975,0.3171 0.11487,0 0.17758,0.0453 0.22106,0.15965 0.0334,0.0878 0.0607,0.16483 0.0607,0.17116 0,0.006 -1.29805,0.0115 -2.88456,0.0115 h -2.88457 z m 11.39222,-8.298393 c 0,-0.110323 -1.61354,-4.766833 -2.18073,-6.293357 l -0.39057,-1.051184 -0.10737,0.21096 c -0.16137,0.31706 -0.74076,1.80223 -1.49055,3.820815 -0.9193,2.474957 -1.14665,3.138245 -1.09379,3.191141 0.0249,0.02491 0.93217,0.06099 2.01618,0.08018 1.08401,0.01919 2.25801,0.0402 2.60888,0.04668 0.35087,0.0065 0.63795,0.0041 0.63795,-0.0052 z"
     style="fill:#000000;fill-opacity:1" />
  <path
     sodipodi:nodetypes="cssssscccsscccssssc"
     style="fill:#000000;fill-opacity:1"
     d="m 252.13793,102.6661 c 0,-0.006 0.0262,-0.08 0.0583,-0.16432 0.048,-0.12614 0.0982,-0.15386 0.28383,-0.1566 0.33435,-0.005 2.09692,-0.26463 2.14892,-0.31664 0.16693,-0.16692 0.17854,-14.657839 0.0119,-14.824497 -0.031,-0.03101 -0.4632,-0.09697 -2.08051,-0.317475 -0.27833,-0.03795 -0.3302,-0.06552 -0.3643,-0.193631 l -0.0398,-0.149387 h 3.48573 c 3.45786,0 3.48545,9.56e-4 3.44986,0.119508 -0.0197,0.06573 -0.053,0.137567 -0.074,0.15964 -0.021,0.02207 -0.5677,0.113203 -1.21498,0.202518 l -1.17689,0.162391 -0.0481,0.33527 c -0.063,0.439494 -0.0602,13.462133 0.003,14.063913 0.0577,0.54874 -0.0837,0.48086 1.38494,0.66495 1.07963,0.13534 1.12459,0.15069 1.159,0.39554 0.002,0.0164 -1.56882,0.0299 -3.49141,0.0299 -1.92259,0 -3.49562,-0.005 -3.49562,-0.011 z"
     id="path4487" />
  <path
     style="fill:#000000;fill-opacity:1"
     d="m 447.51538,102.15593 c 0.0201,-0.0801 0.041,-0.1472 0.0464,-0.14921 0.005,-0.002 0.63308,-0.0703 1.39482,-0.15171 0.76175,-0.0814 1.40418,-0.1672 1.42764,-0.19059 0.0234,-0.0234 0.0592,-0.74181 0.0795,-1.59653 0.0471,-1.984617 0.0465,-10.649649 -9.2e-4,-11.838772 l -0.036,-0.903195 -1.34023,0.0055 c -1.84272,0.0075 -3.17766,0.144642 -4.21713,0.433202 -0.55004,0.152692 -0.75721,0.261618 -0.82208,0.432243 -0.0286,0.07532 -0.10712,0.447724 -0.1744,0.827566 -0.237,1.337826 -0.22095,1.286279 -0.42213,1.356408 -0.0996,0.03472 -0.18755,0.05645 -0.19547,0.0483 -0.008,-0.0082 0.0337,-0.539266 0.0924,-1.180244 0.13743,-1.500237 0.23223,-3.017128 0.23223,-3.71616 v -0.552019 l 0.18939,0.03858 0.18938,0.03858 0.0383,0.542624 c 0.0211,0.298445 0.0544,0.628429 0.0741,0.733298 l 0.0358,0.190671 0.50862,0.03679 c 3.004,0.217295 11.81281,0.208916 14.05286,-0.01336 l 0.38019,-0.03773 0.12804,-0.524436 c 0.0704,-0.288441 0.12993,-0.593487 0.13224,-0.677883 0.003,-0.107919 0.0431,-0.163874 0.13532,-0.188584 0.24367,-0.0653 0.34513,-0.04408 0.31199,0.06525 -0.057,0.187966 -0.26622,1.775877 -0.47374,3.594976 -0.11313,0.991735 -0.21619,1.813664 -0.22904,1.826506 -0.0128,0.01284 -0.1009,0.0063 -0.19571,-0.0145 l -0.17236,-0.03786 0.008,-1.264211 0.008,-1.264213 -0.37876,-0.126024 c -0.82878,-0.275768 -2.8984,-0.527064 -4.81531,-0.584686 l -1.17338,-0.03527 -0.046,0.984838 c -0.0596,1.276841 -0.0597,9.187521 -1.6e-4,11.56956 l 0.0461,1.844125 0.15453,0.0309 c 0.085,0.017 0.73103,0.0893 1.43563,0.16057 0.7046,0.0713 1.28551,0.13226 1.29092,0.13542 0.005,0.003 0.0263,0.0713 0.0464,0.15133 l 0.0365,0.14556 h -3.90946 -3.90945 z"
     id="path4489" />
  <path
     sodipodi:nodetypes="csssssssssccssssssc"
     style="fill:#000000;fill-opacity:1"
     d="m 615.24668,102.98601 c -2.19758,-0.26737 -3.81263,-1.01591 -5.18924,-2.40511 -1.21859,-1.229737 -1.88701,-2.470017 -2.17798,-4.041293 -0.16037,-0.866014 -0.14484,-2.510716 0.0315,-3.332313 0.38152,-1.777993 1.12908,-3.151049 2.42136,-4.44736 2.16489,-2.171647 4.91086,-3.074934 8.42437,-2.771194 1.39189,0.120328 2.53536,0.424459 3.60154,0.957908 2.26512,1.13333 3.70468,2.962641 4.21525,5.356501 0.12523,0.587189 0.14148,2.003665 0.0318,2.777457 -0.61707,4.355377 -3.89102,7.431564 -8.4414,7.931504 -0.76884,0.0845 -2.1068,0.0725 -2.9172,-0.0261 z m 3.99831,-0.92223 c 2.87831,-0.4631 4.89758,-2.437957 5.53407,-5.412317 0.17908,-0.83681 0.19429,-2.386163 0.031,-3.157978 -0.70158,-3.316322 -3.21105,-5.84834 -6.51126,-6.569741 -0.80297,-0.175517 -2.50016,-0.16043 -3.35657,0.02984 -3.5211,0.78231 -5.5557,3.297974 -5.5557,6.869301 0,2.985179 1.89736,5.991789 4.70021,7.448065 1.62959,0.84669 3.26298,1.09774 5.15823,0.79283 z"
     id="path4491" />
  <path
     id="path4493"
     d="m 574.13793,102.6661 c 0,-0.006 0.0262,-0.08 0.0583,-0.16432 0.048,-0.12614 0.0982,-0.15386 0.28383,-0.1566 0.33435,-0.005 2.09692,-0.26463 2.14892,-0.31664 0.16693,-0.16692 0.17854,-14.657839 0.0119,-14.824497 -0.031,-0.03101 -0.4632,-0.09697 -2.08051,-0.317475 -0.27833,-0.03795 -0.3302,-0.06552 -0.3643,-0.193631 l -0.0398,-0.149387 h 3.48573 c 3.45786,0 3.48545,9.56e-4 3.44986,0.119508 -0.0197,0.06573 -0.053,0.137567 -0.074,0.15964 -0.021,0.02207 -0.5677,0.113203 -1.21498,0.202518 l -1.17689,0.162391 -0.0481,0.33527 c -0.063,0.439494 -0.0602,13.462133 0.003,14.063913 0.0577,0.54874 -0.0837,0.48086 1.38494,0.66495 1.07963,0.13534 1.12459,0.15069 1.159,0.39554 0.002,0.0164 -1.56882,0.0299 -3.49141,0.0299 -1.92259,0 -3.49562,-0.005 -3.49562,-0.011 z"
     style="fill:#000000;fill-opacity:1"
     sodipodi:nodetypes="cssssscccsscccssssc" />
  <path
     sodipodi:nodetypes="ccccccsssssssssssscccssssssssssssssssssc"
     id="path4495"
     d="m 653.24382,104.64804 c 0.21881,-1.50883 0.32876,-3.02977 0.37431,-5.177957 l 0.0408,-1.92649 0.21528,0.07436 0.21529,0.07435 0.0361,0.7733 c 0.0619,1.3276 0.0971,1.52687 0.34257,1.942747 0.28707,0.48628 1.02384,1.17719 1.54765,1.45129 0.69551,0.36396 1.21263,0.49293 1.96949,0.49117 0.77631,-0.002 1.24374,-0.10792 1.87991,-0.42679 1.33037,-0.66683 1.96181,-2.157787 1.56723,-3.700567 -0.27703,-1.083183 -0.84829,-1.690473 -2.84778,-3.027405 -1.77153,-1.184492 -2.44014,-1.697883 -3.02414,-2.322069 -1.22825,-1.312783 -1.51347,-2.89654 -0.78582,-4.363445 0.41746,-0.841568 0.9909,-1.414707 1.8321,-1.831107 0.80538,-0.398678 1.28057,-0.495726 2.42736,-0.495736 1.09652,-1.1e-5 1.92726,0.132988 2.60718,0.417398 0.19779,0.08273 0.40272,0.163944 0.45541,0.180475 0.0802,0.02515 0.12792,-0.131895 0.29263,-0.96226 l 0.1968,-0.992318 0.20465,-0.03839 c 0.11255,-0.02111 0.21455,-0.02841 0.22666,-0.01621 0.0121,0.0122 -0.0301,0.413255 -0.0939,0.891236 -0.19675,1.475289 -0.35599,3.161599 -0.39488,4.181521 -0.0347,0.909274 -0.0446,0.972897 -0.14763,0.943975 -0.36262,-0.101833 -0.33339,-0.02273 -0.36098,-0.976696 -0.0326,-1.128479 -0.13103,-1.375651 -0.81472,-2.046835 -0.50747,-0.49819 -0.98441,-0.771973 -1.63616,-0.939206 -0.45981,-0.11798 -1.59459,-0.08655 -2.04057,0.05653 -1.27837,0.410123 -1.9771,1.360029 -1.89384,2.574662 0.0776,1.131977 0.62308,1.696647 3.33204,3.449191 1.44217,0.933006 2.04491,1.392639 2.61453,1.993791 0.72227,0.76226 1.11865,1.491826 1.29129,2.376732 0.10817,0.554407 0.0446,1.732257 -0.12209,2.261297 -0.57169,1.814706 -2.06573,3.012696 -4.19593,3.364486 -1.05501,0.17423 -2.80006,0.0323 -3.91637,-0.31863 -0.25855,-0.0813 -0.4772,-0.13906 -0.48589,-0.12841 -0.009,0.0107 -0.11641,0.50484 -0.2394,1.0982 -0.28179,1.35947 -0.25364,1.2694 -0.40985,1.31128 -0.27424,0.0735 -0.29861,0.0531 -0.25938,-0.21747 z"
     style="fill:#000000;fill-opacity:1" />
</svg>
